<svg xmlns="http://www.w3.org/2000/svg" xmlns:xlink="http://www.w3.org/1999/xlink" width="350" zoomAndPan="magnify" viewBox="0 0 262.5 262.500001" height="350" preserveAspectRatio="xMidYMid meet" version="1.0"><defs><clipPath id="bd1e292872"><path d="M 33.503906 0 L 239 0 L 239 262 L 33.503906 262 Z M 33.503906 0 " clip-rule="nonzero"/></clipPath></defs><g clip-path="url(#bd1e292872)"><path fill="#000000" d="M 238.820312 116.886719 C 238.792969 117.765625 238.847656 118.714844 238.535156 119.496094 C 237.6875 121.566406 237.0625 123.664062 236.523438 125.847656 C 236.058594 127.789062 234.515625 129.164062 232.914062 130.34375 C 229.910156 132.570312 226.484375 133.589844 222.800781 133.875 C 221.738281 133.957031 220.648438 133.84375 219.488281 134.339844 C 219.429688 134.894531 219.289062 135.460938 219.304688 136.015625 C 219.628906 143.585938 218.609375 151.070312 217.789062 158.574219 C 217.308594 162.953125 216.867188 167.335938 216.386719 171.714844 C 215.945312 175.800781 215.492188 179.898438 215.027344 183.980469 C 214.503906 188.5625 213.992188 193.125 213.441406 197.707031 C 212.675781 204.03125 211.953125 210.351562 211.074219 216.648438 C 210.609375 219.9375 209.800781 223.183594 208.652344 226.320312 C 207.945312 228.246094 207.292969 230.191406 206.671875 232.160156 C 206.246094 233.507812 205.496094 234.628906 204.617188 235.691406 C 201.273438 239.703125 197.40625 243.148438 193.171875 246.183594 C 183.558594 253.074219 172.894531 257.496094 161.320312 259.824219 C 153.816406 261.328125 146.238281 262.191406 138.578125 262.019531 C 134.285156 261.921875 129.992188 261.46875 125.703125 261.058594 C 116.90625 260.207031 108.339844 258.277344 99.925781 255.597656 C 90.480469 252.59375 81.429688 248.664062 73.058594 243.289062 C 69.347656 240.894531 65.894531 238.171875 62.679688 235.125 C 60.949219 233.480469 59.816406 231.535156 58.910156 229.28125 C 57.664062 226.207031 57.394531 223.058594 57.15625 219.839844 C 56.6875 213.683594 56.136719 207.53125 55.613281 201.390625 C 55.386719 198.65625 55.160156 195.917969 54.917969 193.195312 C 54.351562 186.761719 53.742188 180.324219 53.21875 173.871094 C 52.707031 167.617188 52.296875 161.367188 51.800781 155.113281 C 51.164062 147.085938 51.222656 139.046875 51.433594 131.023438 C 51.449219 130.65625 51.347656 130.273438 51.292969 129.761719 C 50.5 129.589844 49.75 129.40625 48.996094 129.292969 C 42.1875 128.300781 37.269531 124.089844 34.792969 117.636719 C 33.914062 115.355469 33.730469 113.128906 33.644531 110.789062 C 33.503906 107.445312 33.984375 104.140625 34.367188 100.835938 C 35.105469 94.613281 35.855469 88.386719 36.777344 82.191406 C 37.808594 75.316406 38.914062 68.453125 40.21875 61.632812 C 41.617188 54.230469 43.164062 46.84375 44.875 39.5 C 46.007812 34.648438 47.554688 29.886719 48.941406 25.09375 C 49.210938 24.15625 49.621094 23.265625 49.976562 22.34375 C 50.484375 21.023438 51.40625 20.171875 52.59375 19.335938 C 58.457031 15.238281 65.113281 12.941406 71.742188 10.589844 C 80.140625 7.609375 88.792969 5.539062 97.546875 3.953125 C 102.066406 3.128906 106.597656 2.292969 111.144531 1.742188 C 119.457031 0.71875 127.769531 0.210938 136.097656 0.238281 C 141.679688 0.265625 147.273438 0.210938 152.839844 0.507812 C 158.601562 0.820312 164.351562 1.273438 170.074219 2.039062 C 177.933594 3.074219 185.710938 4.476562 193.429688 6.320312 C 200.480469 7.992188 207.363281 10.175781 214.078125 12.886719 C 215.792969 13.582031 217.449219 14.472656 219.019531 15.4375 C 221.46875 16.941406 223.324219 18.96875 224.601562 21.660156 C 226.5 25.6875 227.828125 29.84375 228.695312 34.183594 C 230.804688 44.746094 232.714844 55.335938 234.160156 66.011719 C 235.066406 72.707031 236.070312 79.398438 236.835938 86.105469 C 237.488281 91.746094 237.8125 97.433594 238.378906 103.078125 C 238.847656 107.683594 238.988281 112.277344 238.820312 116.886719 Z M 238.820312 116.886719 " fill-opacity="1" fill-rule="nonzero"/></g><path fill="#3d5c7c" d="M 215.792969 140.296875 C 215.75 141.035156 215.679688 141.769531 215.605469 142.507812 C 214.914062 149.230469 214.203125 155.949219 213.453125 162.671875 C 212.804688 168.414062 212.050781 174.140625 211.371094 179.882812 C 210.707031 185.425781 210.125 190.984375 209.402344 196.515625 C 208.484375 203.605469 207.589844 210.695312 206.457031 217.753906 C 205.863281 221.425781 204.871094 225.027344 204.53125 228.742188 C 204.347656 230.726562 203.398438 232.203125 202.066406 233.605469 C 195.863281 240.15625 188.613281 245.246094 180.554688 249.230469 C 173.21875 252.847656 165.429688 255.03125 157.398438 256.421875 C 152.273438 257.3125 147.101562 257.726562 141.917969 257.839844 C 137.230469 257.9375 132.542969 257.597656 127.855469 257.113281 C 121.808594 256.492188 115.84375 255.457031 109.953125 253.980469 C 98.609375 251.160156 87.734375 247.105469 77.675781 241.050781 C 72.109375 237.703125 67.027344 233.761719 62.722656 228.84375 C 61.757812 227.738281 61.347656 226.628906 61.277344 225.15625 C 61.035156 220.066406 60.652344 214.988281 60.3125 209.898438 C 60.117188 206.964844 59.945312 204.03125 59.691406 201.109375 C 58.910156 192.332031 58.089844 183.542969 57.3125 174.765625 C 56.519531 165.890625 55.695312 157.011719 55.03125 148.121094 C 54.675781 143.34375 54.519531 138.550781 54.335938 133.757812 C 61.941406 132.03125 69.6875 134.640625 75.722656 141.769531 C 86.203125 154.363281 103.664062 147.015625 118.339844 144.917969 C 121.128906 144.222656 124.273438 143.867188 127.078125 145.613281 C 138.25 153.3125 151.535156 154.007812 163.402344 149.808594 C 170.738281 147.015625 178.074219 141.769531 186.460938 144.210938 C 196.429688 147.34375 207.363281 146.039062 215.792969 140.296875 Z M 215.792969 140.296875 " fill-opacity="1" fill-rule="nonzero"/><path fill="#242f40" d="M 215.792969 140.296875 C 207.363281 146.039062 196.429688 147.328125 186.433594 144.195312 C 178.046875 141.742188 170.710938 146.988281 163.375 149.796875 C 151.492188 153.992188 138.222656 153.296875 127.046875 145.597656 C 124.257812 143.855469 121.113281 144.195312 118.308594 144.902344 C 103.636719 147.003906 86.175781 154.347656 75.695312 141.757812 C 69.660156 134.625 61.914062 132.015625 54.308594 133.746094 C 54.28125 133.050781 54.253906 132.355469 54.222656 131.660156 C 54.195312 131.09375 54.28125 130.511719 54.308594 129.875 C 54.960938 129.703125 55.511719 129.507812 56.078125 129.449219 C 58.898438 129.109375 61.714844 128.824219 64.535156 128.484375 C 67.226562 128.160156 69.320312 129.09375 70.863281 131.308594 C 71.375 132.03125 71.914062 132.722656 72.464844 133.40625 C 73.328125 134.46875 74.164062 135.558594 75.085938 136.582031 C 79.035156 140.90625 83.878906 143.273438 89.816406 143.445312 C 93.566406 143.558594 97.222656 143.003906 100.917969 142.535156 C 106.738281 141.800781 112.574219 141.132812 118.378906 140.339844 C 120.929688 139.984375 123.4375 139.941406 125.972656 140.351562 C 126.636719 140.464844 127.402344 140.679688 128.265625 139.925781 C 129.710938 140.195312 131.183594 140.421875 132.570312 140.960938 C 132.585938 141.035156 132.601562 141.089844 132.628906 141.160156 C 133.109375 142.183594 133.917969 142.917969 134.921875 143.34375 C 136.722656 144.097656 138.519531 144.875 140.390625 145.429688 C 144.636719 146.675781 148.984375 147.257812 153.433594 146.902344 C 156.761719 146.648438 160.03125 146.050781 163.148438 144.820312 C 166.421875 143.527344 169.675781 142.183594 172.921875 140.835938 C 177.070312 139.105469 181.320312 138.296875 185.824219 139.035156 C 189.390625 139.617188 192.960938 140.167969 196.558594 140.621094 C 201.160156 141.203125 205.523438 140.4375 209.503906 137.957031 C 210.75 137.175781 211.996094 136.398438 213.242188 135.617188 C 213.976562 135.148438 214.773438 134.835938 215.792969 134.808594 C 215.917969 136.679688 215.90625 138.496094 215.792969 140.296875 Z M 215.792969 140.296875 " fill-opacity="1" fill-rule="nonzero"/><path fill="#5a5b5d" d="M 235.363281 118.515625 C 235.109375 115.878906 234.898438 113.242188 234.710938 110.605469 C 234.445312 106.890625 234.289062 103.160156 233.933594 99.460938 C 233.28125 92.640625 232.601562 85.808594 231.808594 79 C 231.03125 72.292969 230.207031 65.574219 229.203125 58.894531 C 228 50.855469 226.539062 42.859375 225.265625 34.835938 C 224.5 30.054688 223.113281 25.503906 221.003906 21.152344 C 220.507812 20.117188 219.871094 19.421875 218.738281 19.039062 C 216.429688 18.257812 214.148438 17.367188 211.867188 16.488281 C 201.796875 12.601562 191.429688 9.835938 180.824219 7.9375 C 175.144531 6.929688 169.449219 5.964844 163.699219 5.5 C 159.507812 5.15625 155.316406 4.703125 151.125 4.503906 C 146.621094 4.292969 142.117188 4.277344 137.613281 4.25 C 130.148438 4.222656 122.714844 4.421875 115.308594 5.199219 C 110.066406 5.753906 104.828125 6.546875 99.628906 7.414062 C 90.367188 8.957031 81.21875 11.070312 72.296875 14.035156 C 67.097656 15.765625 61.886719 17.480469 56.984375 19.945312 C 52.765625 22.058594 53.585938 21.335938 52.339844 25.390625 C 49.664062 34.109375 47.738281 43 46.039062 51.949219 C 44.761719 58.683594 43.515625 65.417969 42.355469 72.167969 C 41.589844 76.605469 40.953125 81.070312 40.359375 85.523438 C 39.636719 90.953125 39.042969 96.414062 38.332031 101.855469 C 37.921875 105.0625 37.511719 108.265625 36.875 111.441406 C 36.476562 113.457031 36.394531 115.285156 37.582031 117.042969 C 37.738281 117.285156 37.808594 117.597656 37.949219 117.835938 C 40.597656 122.460938 44.394531 125.410156 49.847656 125.804688 C 51.6875 125.933594 53.574219 125.960938 55.414062 125.804688 C 58.046875 125.578125 60.667969 125.222656 63.257812 124.785156 C 67.636719 124.0625 71.148438 125.421875 73.824219 128.96875 C 75.070312 130.597656 76.347656 132.214844 77.675781 133.789062 C 81.769531 138.609375 87.152344 140.167969 93.226562 139.6875 C 96.246094 139.445312 99.246094 138.964844 102.234375 138.46875 C 107.746094 137.546875 113.296875 137.121094 118.875 136.964844 C 121.695312 136.878906 124.285156 137.644531 126.820312 138.707031 C 127.332031 138.921875 127.769531 139.316406 128.4375 139.757812 C 128.367188 139.828125 128.308594 139.886719 128.238281 139.941406 C 129.683594 140.210938 131.15625 140.4375 132.542969 140.976562 C 132.472656 140.480469 132.867188 139.886719 133.363281 139.855469 C 133.746094 139.828125 134.15625 139.828125 134.527344 139.925781 C 135.277344 140.125 136.011719 140.410156 136.75 140.664062 C 140.730469 142.097656 144.851562 143.019531 149.042969 143.273438 C 153.675781 143.558594 158.207031 142.664062 162.527344 140.933594 C 165.96875 139.542969 169.378906 138.054688 172.820312 136.679688 C 175.9375 135.433594 179.222656 134.78125 182.566406 134.878906 C 185.679688 134.964844 188.8125 135.234375 191.898438 135.859375 C 193.625 136.210938 195.355469 136.539062 197.109375 136.679688 C 200.679688 136.976562 204.136719 136.511719 207.25 134.523438 C 208.398438 133.789062 209.558594 133.050781 210.722656 132.3125 C 212.40625 131.25 214.21875 130.625 216.214844 130.425781 C 219.132812 130.144531 222.050781 129.832031 224.953125 129.363281 C 228.394531 128.8125 231.1875 127.152344 233.011719 124.0625 C 233.507812 123.226562 234.019531 122.375 234.585938 121.578125 C 235.277344 120.628906 235.476562 119.636719 235.363281 118.515625 Z M 76.953125 61.859375 C 76.445312 66.636719 75.90625 71.402344 75.453125 76.179688 C 75.058594 80.277344 74.757812 84.375 74.449219 88.472656 C 74.304688 90.328125 74.277344 92.1875 74.179688 94.042969 C 74.136719 94.710938 74.023438 95.363281 73.9375 96.03125 C 73.738281 96.042969 73.527344 96.074219 73.328125 96.085938 C 73.246094 95.660156 73.074219 95.222656 73.089844 94.796875 C 73.203125 90.386719 73.203125 85.976562 73.5 81.582031 C 73.851562 76.109375 74.433594 70.648438 74.929688 65.191406 C 75.085938 63.53125 75.296875 61.875 75.523438 60.226562 C 75.609375 59.660156 75.792969 59.078125 76.035156 58.554688 C 76.121094 58.371094 76.488281 58.273438 76.742188 58.242188 C 76.839844 58.230469 77.039062 58.46875 77.082031 58.625 C 77.152344 58.910156 77.179688 59.207031 77.152344 59.492188 C 77.109375 60.300781 77.039062 61.078125 76.953125 61.859375 Z M 135.703125 76.039062 C 135.390625 81.511719 135.09375 86.984375 134.738281 92.457031 C 134.441406 97.050781 134.074219 101.628906 133.703125 106.222656 C 133.675781 106.679688 133.519531 107.132812 133.378906 107.785156 C 133.039062 107.402344 132.714844 107.21875 132.699219 107.003906 C 132.628906 106.222656 132.640625 105.445312 132.671875 104.664062 C 132.769531 101.628906 132.855469 98.597656 133.023438 95.5625 C 133.292969 90.671875 133.648438 85.792969 133.960938 80.902344 C 134.101562 78.648438 134.1875 76.40625 134.355469 74.152344 C 134.441406 73.117188 134.328125 71.996094 135.261719 70.933594 C 135.503906 71.332031 135.828125 71.628906 135.828125 71.925781 C 135.828125 73.300781 135.785156 74.675781 135.703125 76.039062 Z M 206.570312 98.609375 C 206.542969 98.835938 206.132812 99.25 206.0625 99.21875 C 205.765625 99.078125 205.339844 98.835938 205.28125 98.566406 C 205.054688 97.519531 204.886719 96.457031 204.800781 95.378906 C 204.347656 89.917969 204.050781 84.445312 203.484375 79 C 202.945312 73.753906 202.152344 68.539062 201.472656 63.292969 C 201.34375 62.328125 201.203125 61.347656 201.148438 60.382812 C 201.132812 60.058594 201.332031 59.730469 201.542969 59.023438 C 201.953125 59.632812 202.25 59.902344 202.324219 60.214844 C 202.703125 62.128906 203.101562 64.042969 203.355469 65.984375 C 204.363281 73.542969 205.351562 81.097656 206.289062 88.671875 C 206.570312 90.898438 206.699219 93.152344 206.796875 95.40625 C 206.839844 96.46875 206.699219 97.546875 206.570312 98.609375 Z M 214.035156 28.242188 C 213.722656 28.59375 213.398438 28.964844 213.015625 29.21875 C 212.039062 29.855469 211.0625 30.566406 210 31.019531 C 207.125 32.238281 204.25 33.488281 201.289062 34.480469 C 192.367188 37.441406 183.257812 39.625 173.984375 41.101562 C 167.410156 42.136719 160.824219 43.042969 154.183594 43.414062 C 148.222656 43.738281 142.257812 44.207031 136.308594 44.21875 C 130.25 44.234375 124.1875 43.824219 118.140625 43.511719 C 115.40625 43.371094 112.6875 43.058594 109.953125 42.800781 C 99.316406 41.78125 88.867188 39.78125 78.753906 36.28125 C 75.707031 35.230469 72.75 33.914062 69.832031 32.566406 C 67.863281 31.644531 66.175781 30.28125 65.242188 28.210938 C 65.15625 28.027344 65.3125 27.675781 65.441406 27.445312 C 65.511719 27.347656 65.722656 27.292969 65.894531 27.292969 C 65.554688 26.640625 65.355469 25.972656 65.582031 25.320312 C 66.148438 24.570312 66.714844 23.703125 67.507812 23.078125 C 67.464844 23.066406 67.421875 23.050781 67.394531 23.039062 C 67.113281 22.925781 67.4375 22.199219 68.003906 21.945312 C 70.058594 21.023438 72.082031 20.03125 74.191406 19.265625 C 80.820312 16.839844 87.675781 15.253906 94.601562 13.992188 C 100.082031 12.984375 105.5625 12.007812 111.085938 11.253906 C 115.730469 10.617188 120.421875 10.320312 125.09375 9.867188 C 131.4375 9.253906 137.796875 9.242188 144.15625 9.3125 C 149.738281 9.367188 155.300781 9.710938 160.855469 10.332031 C 165.132812 10.816406 169.421875 11.140625 173.6875 11.707031 C 184.066406 13.070312 194.304688 15.167969 204.261719 18.472656 C 207.054688 19.394531 209.703125 20.667969 212.238281 22.160156 C 212.492188 22.300781 212.730469 22.46875 212.929688 22.683594 C 213.042969 22.796875 213.144531 23.09375 213.070312 23.179688 C 213.042969 23.222656 213 23.265625 212.972656 23.308594 C 214.089844 24.128906 215.195312 24.910156 215.4375 26.382812 C 215.648438 27.21875 214.886719 27.828125 214.035156 28.242188 Z M 214.035156 28.242188 " fill-opacity="1" fill-rule="nonzero"/><path fill="#4d4d4f" d="M 215.4375 26.339844 C 215.664062 27.234375 214.898438 27.828125 214.050781 28.242188 C 214.0625 28.226562 214.078125 28.210938 214.078125 28.199219 C 214.347656 27.886719 214.488281 27.476562 214.121094 27.164062 C 213.9375 27.007812 213.597656 27.007812 213.328125 27.007812 C 213.15625 27.023438 212.972656 27.164062 212.816406 27.277344 C 209.363281 29.601562 205.507812 30.976562 201.585938 32.210938 C 192.90625 34.949219 184.066406 37.003906 175.085938 38.464844 C 172.59375 38.875 170.117188 39.542969 167.425781 39.257812 C 167.3125 38.691406 167.144531 38.136719 167.113281 37.570312 C 167.042969 36.492188 167.070312 35.414062 167.042969 34.339844 C 167.027344 33.957031 166.972656 33.542969 166.308594 33.488281 C 164.949219 35.300781 165.585938 37.785156 164.453125 39.925781 C 162.3125 40.121094 160.074219 40.378906 157.851562 40.535156 C 152.980469 40.886719 148.09375 41.328125 143.222656 41.484375 C 135.785156 41.738281 128.351562 41.652344 120.929688 40.972656 C 120.476562 40.929688 120.039062 40.746094 119.5 40.605469 C 119.585938 39.015625 119.667969 37.554688 119.726562 36.097656 C 119.824219 33.359375 119.925781 30.625 120.007812 27.886719 C 120.023438 27.503906 120.007812 27.078125 119.855469 26.738281 C 119.710938 26.425781 119.371094 26.027344 119.089844 26 C 118.820312 25.972656 118.351562 26.328125 118.238281 26.609375 C 118.039062 27.148438 117.984375 27.757812 117.984375 28.339844 C 118.011719 30.976562 118.082031 33.628906 118.152344 36.265625 C 118.183594 37.710938 118.523438 39.160156 118.070312 40.847656 C 115.195312 40.308594 112.390625 40.292969 109.585938 39.9375 C 103.664062 39.214844 97.789062 38.292969 91.96875 36.933594 C 83.371094 34.917969 75.015625 32.269531 67.351562 27.746094 C 67.097656 27.601562 66.828125 27.476562 66.558594 27.363281 C 66.375 27.292969 66.191406 27.207031 66.007812 27.191406 C 65.992188 27.191406 65.964844 27.191406 65.9375 27.191406 C 65.597656 26.539062 65.398438 25.875 65.625 25.222656 C 66.191406 24.46875 66.757812 23.605469 67.550781 22.980469 C 67.863281 23.09375 68.230469 23.164062 68.527344 23.09375 C 69.195312 22.9375 69.832031 22.683594 70.46875 22.425781 C 80.921875 18.359375 91.8125 16.089844 102.84375 14.429688 C 107.972656 13.664062 113.113281 13.027344 118.265625 12.503906 C 122.941406 12.035156 127.628906 11.695312 132.316406 11.511719 C 136.523438 11.339844 140.742188 11.367188 144.9375 11.480469 C 149.625 11.609375 154.324219 11.835938 159 12.234375 C 163.375 12.601562 167.738281 13.253906 172.113281 13.765625 C 178.332031 14.5 184.476562 15.636719 190.582031 17.039062 C 197.253906 18.570312 203.726562 20.824219 210.238281 22.894531 C 210.988281 23.136719 211.726562 23.378906 212.492188 23.535156 C 212.632812 23.5625 212.84375 23.363281 213 23.179688 C 214.078125 24.074219 215.183594 24.867188 215.4375 26.339844 Z M 215.4375 26.339844 " fill-opacity="1" fill-rule="nonzero"/></svg>