<svg xmlns="http://www.w3.org/2000/svg" xmlns:xlink="http://www.w3.org/1999/xlink" width="500" zoomAndPan="magnify" viewBox="0 0 375 225" height="300" preserveAspectRatio="xMidYMid meet" version="1.0"><defs><g/></defs><g fill="#242f40" fill-opacity="1"><g transform="translate(50.955808, 104.250006)"><g><path d="M 41.65625 1.359375 C 33.132812 1.359375 26.265625 0.445312 21.046875 -1.375 C 15.835938 -3.207031 11.867188 -5.726562 9.140625 -8.9375 C 6.410156 -12.144531 4.578125 -15.847656 3.640625 -20.046875 L 31.734375 -20.046875 C 33.804688 -17.054688 37.113281 -15.5625 41.65625 -15.5625 C 46.195312 -15.5625 49.507812 -17.054688 51.59375 -20.046875 C 51.769531 -20.335938 51.859375 -20.597656 51.859375 -20.828125 C 51.859375 -21.617188 50.8125 -22.210938 48.71875 -22.609375 C 46.625 -23.003906 43.492188 -23.304688 39.328125 -23.515625 C 34.085938 -23.742188 28.582031 -24.300781 22.8125 -25.1875 C 9.945312 -27.175781 3.515625 -32.34375 3.515625 -40.6875 C 3.515625 -41.394531 3.554688 -42.144531 3.640625 -42.9375 C 4.578125 -47.125 6.410156 -50.820312 9.140625 -54.03125 C 11.867188 -57.238281 15.835938 -59.757812 21.046875 -61.59375 C 26.265625 -63.425781 33.132812 -64.34375 41.65625 -64.34375 C 50.1875 -64.34375 57.054688 -63.425781 62.265625 -61.59375 C 67.484375 -59.757812 71.453125 -57.238281 74.171875 -54.03125 C 76.898438 -50.820312 78.734375 -47.125 79.671875 -42.9375 L 51.59375 -42.9375 C 49.507812 -45.925781 46.195312 -47.421875 41.65625 -47.421875 C 37.113281 -47.421875 33.804688 -45.925781 31.734375 -42.9375 C 31.585938 -42.695312 31.515625 -42.476562 31.515625 -42.28125 C 31.515625 -41.570312 32.515625 -41.046875 34.515625 -40.703125 C 36.523438 -40.367188 39.484375 -40.082031 43.390625 -39.84375 C 47.304688 -39.613281 51.472656 -39.234375 55.890625 -38.703125 C 60.316406 -38.179688 64.457031 -37.269531 68.3125 -35.96875 C 72.164062 -34.664062 75.175781 -32.738281 77.34375 -30.1875 C 79.039062 -28.226562 79.890625 -25.738281 79.890625 -22.71875 C 79.890625 -21.875 79.816406 -20.984375 79.671875 -20.046875 C 78.734375 -15.847656 76.898438 -12.144531 74.171875 -8.9375 C 71.453125 -5.726562 67.484375 -3.207031 62.265625 -1.375 C 57.054688 0.445312 50.1875 1.359375 41.65625 1.359375 Z M 41.65625 1.359375 "/></g></g><g transform="translate(134.364008, 104.250006)"><g><path d="M 44.34375 1.359375 C 28.957031 1.359375 18.128906 -1.832031 11.859375 -8.21875 C 6.585938 -13.582031 3.953125 -21.332031 3.953125 -31.46875 L 3.953125 -63.015625 L 30.40625 -63.015625 L 30.40625 -31.46875 C 30.40625 -27.070312 31.15625 -23.597656 32.65625 -21.046875 C 34.789062 -17.390625 38.6875 -15.5625 44.34375 -15.5625 C 50.050781 -15.5625 53.960938 -17.390625 56.078125 -21.046875 C 57.566406 -23.679688 58.3125 -27.15625 58.3125 -31.46875 L 58.3125 -63.015625 L 84.765625 -63.015625 L 84.765625 -31.109375 C 84.765625 -21.210938 82.144531 -13.582031 76.90625 -8.21875 C 70.601562 -1.832031 59.75 1.359375 44.34375 1.359375 Z M 44.34375 1.359375 "/></g></g><g transform="translate(223.08959, 104.250006)"><g><path d="M 52.25 0 L 7.03125 0 L 7.03125 -63.015625 L 53.21875 -63.015625 C 61.414062 -63.015625 68.164062 -62.640625 73.46875 -61.890625 C 78.78125 -61.148438 82.867188 -59.976562 85.734375 -58.375 C 88.609375 -56.78125 90.554688 -54.753906 91.578125 -52.296875 C 92.609375 -49.835938 93.125 -46.894531 93.125 -43.46875 C 93.03125 -40.769531 92.285156 -38.535156 90.890625 -36.765625 C 89.503906 -34.992188 87.878906 -33.675781 86.015625 -32.8125 C 84.160156 -31.945312 82.53125 -31.515625 81.125 -31.515625 C 82.5 -31.515625 84.109375 -31.242188 85.953125 -30.703125 C 87.796875 -30.160156 89.585938 -29.375 91.328125 -28.34375 C 93.078125 -27.320312 94.53125 -26.078125 95.6875 -24.609375 C 96.84375 -23.140625 97.421875 -21.46875 97.421875 -19.59375 C 97.421875 -17.132812 97.132812 -14.878906 96.5625 -12.828125 C 96 -10.773438 94.859375 -8.957031 93.140625 -7.375 C 91.429688 -5.800781 88.90625 -4.460938 85.5625 -3.359375 C 82.21875 -2.265625 77.84375 -1.429688 72.4375 -0.859375 C 67.039062 -0.285156 60.3125 0 52.25 0 Z M 50.75 -36.921875 C 54.625 -36.921875 57.625 -37.109375 59.75 -37.484375 C 61.875 -37.867188 63.34375 -38.445312 64.15625 -39.21875 C 64.976562 -40 65.390625 -40.988281 65.390625 -42.1875 C 65.390625 -43.414062 64.976562 -44.414062 64.15625 -45.1875 C 63.34375 -45.96875 61.875 -46.539062 59.75 -46.90625 C 57.625 -47.28125 54.625 -47.46875 50.75 -47.46875 L 33.484375 -47.46875 L 33.484375 -36.921875 Z M 50.75 -15.5625 C 54.707031 -15.5625 57.914062 -15.660156 60.375 -15.859375 C 62.84375 -16.066406 64.644531 -16.535156 65.78125 -17.265625 C 66.925781 -18.003906 67.5 -19.191406 67.5 -20.828125 C 67.5 -22.472656 66.925781 -23.664062 65.78125 -24.40625 C 64.644531 -25.15625 62.84375 -25.625 60.375 -25.8125 C 57.914062 -26.007812 54.707031 -26.109375 50.75 -26.109375 L 33.484375 -26.109375 L 33.484375 -15.5625 Z M 50.75 -15.5625 "/></g></g></g><g fill="#242f40" fill-opacity="1"><g transform="translate(146.682794, 24.690059)"><g><path d="M 16.390625 0 L 8.328125 0 L 8.328125 -14.46875 L 0.796875 -14.46875 L 0.796875 -19.21875 L 23.921875 -19.21875 L 23.921875 -14.46875 L 16.390625 -14.46875 Z M 16.390625 0 "/></g></g><g transform="translate(171.41035, 24.690059)"><g><path d="M 28.40625 0 L 20.34375 0 L 20.34375 -7.75 L 10.203125 -7.75 L 10.203125 0 L 2.140625 0 L 2.140625 -19.21875 L 10.203125 -19.21875 L 10.203125 -11.453125 L 20.34375 -11.453125 L 20.34375 -19.21875 L 28.40625 -19.21875 Z M 28.40625 0 "/></g></g><g transform="translate(201.951426, 24.690059)"><g><path d="M 25.296875 0 L 2.140625 0 L 2.140625 -19.21875 L 24.234375 -19.21875 L 24.234375 -14.46875 L 10.203125 -14.46875 L 10.203125 -11.453125 L 22.0625 -11.453125 L 22.0625 -7.75 L 10.203125 -7.75 L 10.203125 -4.75 L 25.296875 -4.75 Z M 25.296875 0 "/></g></g></g><g fill="#242f40" fill-opacity="1"><g transform="translate(367.898422, 111.094942)"><g><path d="M -60.5625 0 L -35.984375 0 L -0.65625 63.015625 L -27.46875 63.015625 L -48.296875 17.96875 L -69.078125 63.015625 L -95.890625 63.015625 Z M -60.5625 0 "/></g></g><g transform="translate(271.350574, 111.094942)"><g><path d="M -82.96875 0 L -7.03125 0 L -7.03125 63.0625 L -79.5 63.0625 L -79.5 47.46875 L -33.484375 47.46875 L -33.484375 37.578125 L -72.375 37.578125 L -72.375 25.4375 L -33.484375 25.4375 L -33.484375 15.59375 L -82.96875 15.59375 Z M -82.96875 0 "/></g></g><g transform="translate(184.866203, 111.094942)"><g><path d="M -93.125 0 L -68.109375 0 C -66.972656 1.582031 -66.171875 3.601562 -65.703125 6.0625 C -65.285156 7.96875 -64.664062 9.835938 -63.84375 11.671875 C -63.03125 13.503906 -61.617188 15.023438 -59.609375 16.234375 C -57.609375 17.453125 -54.628906 18.101562 -50.671875 18.1875 L -33.484375 18.1875 L -33.484375 0 L -7.03125 0 L -7.03125 63.0625 L -50.046875 63.0625 C -60.335938 63.0625 -68.640625 62.289062 -74.953125 60.75 C -81.265625 59.21875 -85.867188 56.800781 -88.765625 53.5 C -91.671875 50.207031 -93.125 45.910156 -93.125 40.609375 C -93.125 36.179688 -92.117188 32.457031 -90.109375 29.4375 C -88.097656 26.425781 -84.925781 24.039062 -80.59375 22.28125 C -84.78125 20.550781 -87.492188 18.476562 -88.734375 16.0625 C -89.984375 13.644531 -90.757812 10.988281 -91.0625 8.09375 C -91.351562 5.507812 -92.039062 2.8125 -93.125 0 Z M -33.484375 33.75 L -48.609375 33.796875 C -52.828125 33.796875 -56.148438 33.984375 -58.578125 34.359375 C -61.015625 34.742188 -62.8125 35.265625 -63.96875 35.921875 C -65.125 36.585938 -65.863281 37.320312 -66.1875 38.125 C -66.507812 38.925781 -66.671875 39.753906 -66.671875 40.609375 C -66.671875 41.453125 -66.507812 42.285156 -66.1875 43.109375 C -65.863281 43.929688 -65.125 44.671875 -63.96875 45.328125 C -62.8125 45.984375 -61.015625 46.503906 -58.578125 46.890625 C -56.148438 47.273438 -52.828125 47.46875 -48.609375 47.46875 L -33.484375 47.46875 Z M -33.484375 33.75 "/></g></g><g transform="translate(88.230465, 111.094942)"><g><path d="M -53.796875 0 L -27.328125 0 L -27.328125 47.46875 L -2.640625 47.46875 L -2.640625 63.0625 L -78.484375 63.0625 L -78.484375 47.46875 L -53.796875 47.46875 Z M -53.796875 0 "/></g></g></g><g fill="#242f40" fill-opacity="1"><g transform="translate(87.391304, 211.051886)"><g><path d="M 10.171875 0 L 2.140625 0 L 2.140625 -19.171875 L 15.21875 -19.171875 C 18.34375 -19.171875 20.863281 -18.9375 22.78125 -18.46875 C 24.695312 -18 26.097656 -17.265625 26.984375 -16.265625 C 27.867188 -15.265625 28.3125 -13.957031 28.3125 -12.34375 C 28.3125 -10.738281 27.867188 -9.4375 26.984375 -8.4375 C 26.097656 -7.4375 24.695312 -6.703125 22.78125 -6.234375 C 20.863281 -5.765625 18.34375 -5.53125 15.21875 -5.53125 L 10.171875 -5.53125 Z M 10.171875 -10.265625 L 14.78125 -10.265625 C 16.0625 -10.265625 17.070312 -10.316406 17.8125 -10.421875 C 18.550781 -10.523438 19.09375 -10.671875 19.4375 -10.859375 C 19.789062 -11.046875 20.015625 -11.265625 20.109375 -11.515625 C 20.210938 -11.773438 20.265625 -12.050781 20.265625 -12.34375 C 20.265625 -12.644531 20.210938 -12.921875 20.109375 -13.171875 C 20.015625 -13.429688 19.789062 -13.65625 19.4375 -13.84375 C 19.09375 -14.03125 18.550781 -14.171875 17.8125 -14.265625 C 17.070312 -14.367188 16.0625 -14.421875 14.78125 -14.421875 L 10.171875 -14.421875 Z M 10.171875 -10.265625 "/></g></g><g transform="translate(116.775027, 211.051886)"><g><path d="M 14.5 0.421875 C 9.757812 0.421875 6.269531 -0.554688 4.03125 -2.515625 C 2.050781 -4.242188 1.0625 -6.597656 1.0625 -9.578125 C 1.0625 -12.554688 2.050781 -14.90625 4.03125 -16.625 C 6.269531 -18.582031 9.757812 -19.5625 14.5 -19.5625 C 19.238281 -19.5625 22.722656 -18.582031 24.953125 -16.625 C 26.929688 -14.90625 27.921875 -12.554688 27.921875 -9.578125 C 27.921875 -6.597656 26.929688 -4.242188 24.953125 -2.515625 C 22.722656 -0.554688 19.238281 0.421875 14.5 0.421875 Z M 14.5 -4.734375 C 16.4375 -4.734375 17.859375 -5.289062 18.765625 -6.40625 C 19.492188 -7.300781 19.859375 -8.359375 19.859375 -9.578125 C 19.859375 -10.796875 19.492188 -11.851562 18.765625 -12.75 C 17.859375 -13.863281 16.4375 -14.421875 14.5 -14.421875 C 12.550781 -14.421875 11.117188 -13.863281 10.203125 -12.75 C 9.472656 -11.851562 9.109375 -10.796875 9.109375 -9.578125 C 9.109375 -8.359375 9.472656 -7.300781 10.203125 -6.40625 C 11.117188 -5.289062 12.550781 -4.734375 14.5 -4.734375 Z M 14.5 -4.734375 "/></g></g><g transform="translate(145.771243, 211.051886)"><g><path d="M 14.96875 0 L 2.140625 0 L 2.140625 -19.171875 L 14.96875 -19.171875 C 20.207031 -19.171875 23.976562 -18.4375 26.28125 -16.96875 C 28.132812 -15.78125 29.1875 -14.164062 29.4375 -12.125 C 29.550781 -11.25 29.609375 -10.398438 29.609375 -9.578125 C 29.609375 -8.765625 29.550781 -7.914062 29.4375 -7.03125 C 29.332031 -6.144531 29.039062 -5.285156 28.5625 -4.453125 C 28.082031 -3.617188 27.316406 -2.867188 26.265625 -2.203125 C 25.222656 -1.535156 23.789062 -1 21.96875 -0.59375 C 20.144531 -0.195312 17.8125 0 14.96875 0 Z M 14.203125 -4.75 C 18.285156 -4.75 20.597656 -5.78125 21.140625 -7.84375 C 21.273438 -8.414062 21.34375 -8.992188 21.34375 -9.578125 C 21.34375 -10.160156 21.269531 -10.738281 21.125 -11.3125 C 20.976562 -11.894531 20.664062 -12.421875 20.1875 -12.890625 C 19.71875 -13.359375 19.003906 -13.726562 18.046875 -14 C 17.097656 -14.28125 15.816406 -14.421875 14.203125 -14.421875 L 10.171875 -14.421875 L 10.171875 -4.75 Z M 14.203125 -4.75 "/></g></g><g transform="translate(176.464472, 211.051886)"><g><path d="M 14.5 0.421875 C 9.757812 0.421875 6.269531 -0.554688 4.03125 -2.515625 C 2.050781 -4.234375 1.0625 -6.582031 1.0625 -9.5625 C 1.0625 -12.550781 2.050781 -14.90625 4.03125 -16.625 C 6.269531 -18.570312 9.757812 -19.546875 14.5 -19.546875 C 17.269531 -19.546875 19.5625 -19.226562 21.375 -18.59375 C 23.195312 -17.957031 24.609375 -17.085938 25.609375 -15.984375 C 26.617188 -14.878906 27.289062 -13.613281 27.625 -12.1875 L 19.171875 -12.1875 C 18.328125 -13.675781 16.769531 -14.421875 14.5 -14.421875 C 12.550781 -14.421875 11.117188 -13.859375 10.203125 -12.734375 C 9.472656 -11.835938 9.109375 -10.78125 9.109375 -9.5625 C 9.109375 -8.34375 9.472656 -7.289062 10.203125 -6.40625 C 11.117188 -5.28125 12.550781 -4.71875 14.5 -4.71875 C 16.769531 -4.71875 18.328125 -5.460938 19.171875 -6.953125 L 27.625 -6.953125 C 27.289062 -5.523438 26.617188 -4.257812 25.609375 -3.15625 C 24.609375 -2.050781 23.195312 -1.175781 21.375 -0.53125 C 19.5625 0.101562 17.269531 0.421875 14.5 0.421875 Z M 14.5 0.421875 "/></g></g><g transform="translate(205.166718, 211.051886)"><g><path d="M 32.203125 0 L 24.046875 0 L 22.25 -3.140625 L 10.15625 -3.140625 L 8.34375 0 L 0.203125 0 L 12.46875 -19.15625 L 19.9375 -19.15625 Z M 19.53125 -7.875 L 16.203125 -13.6875 L 12.859375 -7.875 Z M 19.53125 -7.875 "/></g></g><g transform="translate(237.570323, 211.051886)"><g><path d="M 12.671875 0.421875 C 10.078125 0.421875 7.984375 0.144531 6.390625 -0.40625 C 4.804688 -0.96875 3.597656 -1.738281 2.765625 -2.71875 C 1.941406 -3.695312 1.390625 -4.820312 1.109375 -6.09375 L 9.640625 -6.09375 C 10.273438 -5.1875 11.285156 -4.734375 12.671875 -4.734375 C 14.046875 -4.734375 15.050781 -5.1875 15.6875 -6.09375 C 15.738281 -6.175781 15.765625 -6.253906 15.765625 -6.328125 C 15.765625 -6.566406 15.445312 -6.742188 14.8125 -6.859375 C 14.175781 -6.984375 13.222656 -7.078125 11.953125 -7.140625 C 10.359375 -7.210938 8.6875 -7.382812 6.9375 -7.65625 C 3.019531 -8.257812 1.0625 -9.832031 1.0625 -12.375 C 1.0625 -12.582031 1.078125 -12.804688 1.109375 -13.046875 C 1.390625 -14.328125 1.941406 -15.453125 2.765625 -16.421875 C 3.597656 -17.398438 4.804688 -18.164062 6.390625 -18.71875 C 7.984375 -19.28125 10.078125 -19.5625 12.671875 -19.5625 C 15.253906 -19.5625 17.335938 -19.28125 18.921875 -18.71875 C 20.515625 -18.164062 21.722656 -17.398438 22.546875 -16.421875 C 23.378906 -15.453125 23.9375 -14.328125 24.21875 -13.046875 L 15.6875 -13.046875 C 15.050781 -13.960938 14.046875 -14.421875 12.671875 -14.421875 C 11.285156 -14.421875 10.273438 -13.960938 9.640625 -13.046875 C 9.597656 -12.972656 9.578125 -12.90625 9.578125 -12.84375 C 9.578125 -12.632812 9.878906 -12.476562 10.484375 -12.375 C 11.097656 -12.269531 12 -12.179688 13.1875 -12.109375 C 14.375 -12.046875 15.640625 -11.929688 16.984375 -11.765625 C 18.335938 -11.609375 19.597656 -11.332031 20.765625 -10.9375 C 21.929688 -10.539062 22.847656 -9.953125 23.515625 -9.171875 C 24.023438 -8.578125 24.28125 -7.820312 24.28125 -6.90625 C 24.28125 -6.644531 24.257812 -6.375 24.21875 -6.09375 C 23.9375 -4.820312 23.378906 -3.695312 22.546875 -2.71875 C 21.722656 -1.738281 20.515625 -0.96875 18.921875 -0.40625 C 17.335938 0.144531 15.253906 0.421875 12.671875 0.421875 Z M 12.671875 0.421875 "/></g></g><g transform="translate(262.93199, 211.051886)"><g><path d="M 16.34375 0 L 8.3125 0 L 8.3125 -14.421875 L 0.796875 -14.421875 L 0.796875 -19.171875 L 23.859375 -19.171875 L 23.859375 -14.421875 L 16.34375 -14.421875 Z M 16.34375 0 "/></g></g></g></svg>