<svg xmlns="http://www.w3.org/2000/svg" xmlns:xlink="http://www.w3.org/1999/xlink" width="500" zoomAndPan="magnify" viewBox="0 0 375 374.999991" height="500" preserveAspectRatio="xMidYMid meet" version="1.0"><defs><clipPath id="d596b719b1"><path d="M 156 25 L 374 25 L 374 350.796875 L 156 350.796875 Z M 156 25 " clip-rule="nonzero"/></clipPath></defs><g clip-path="url(#d596b719b1)"><path fill="#e9e3e0" d="M 184.742188 256.703125 C 182.023438 258.828125 178.34375 259.710938 174.6875 259.710938 C 171.488281 259.710938 168.308594 259.035156 165.796875 257.925781 C 159.773438 255.253906 158.800781 250.671875 158.664062 248.828125 C 158.449219 245.960938 159.359375 241.800781 164.933594 238.25 C 170.65625 234.609375 172.015625 233.742188 177.433594 227.925781 C 188.273438 216.285156 192.164062 204.605469 190.867188 187.613281 C 188.929688 162.257812 179.597656 145.332031 163.128906 137.308594 C 157.289062 134.460938 156.121094 129.300781 156.898438 125.75 C 158.207031 119.753906 164.34375 116.398438 169.453125 116.28125 C 182.542969 115.945312 194.4375 122.582031 203.90625 135.363281 C 212.28125 146.671875 217.136719 160.355469 219.734375 169.84375 C 224.839844 188.492188 222.6875 208.128906 213.675781 225.140625 C 206.53125 238.628906 195.039062 248.664062 184.742188 256.703125 Z M 285.921875 141.277344 C 280.121094 116.34375 270.0625 95.9375 256.09375 80.707031 C 246.390625 69.832031 236.601562 63.480469 232.886719 61.285156 C 229.089844 59.003906 227.113281 58.203125 226.160156 57.816406 L 226.0625 57.777344 C 225.910156 57.703125 225.757812 57.636719 225.597656 57.574219 C 225.042969 57.355469 224.488281 57.117188 223.929688 56.878906 C 221.421875 55.804688 218.328125 54.480469 214.652344 54.257812 C 208.726562 53.414062 199.441406 56.15625 196.722656 62.941406 C 195.144531 66.878906 195.75 72.546875 202.191406 76.632812 C 202.5 76.832031 202.824219 77.003906 203.164062 77.15625 L 205.394531 78.140625 C 206.359375 78.566406 207.273438 78.96875 207.472656 79.085938 C 207.601562 79.175781 208.035156 79.542969 208.417969 79.871094 C 208.894531 80.269531 209.480469 80.769531 210.335938 81.476562 C 213.972656 84.394531 217.800781 87.542969 221.089844 91.105469 C 221.191406 91.214844 221.292969 91.320312 221.398438 91.421875 C 240.53125 109.847656 252.671875 142.242188 253.894531 178.117188 C 253.421875 199.195312 250.824219 212.96875 244.007812 230.652344 C 238.152344 245.789062 230.609375 259.804688 221.527344 272.390625 C 218.914062 276.113281 215.675781 279.992188 212.25 284.09375 C 208.902344 288.101562 205.441406 292.246094 202.527344 296.335938 C 200.992188 298.371094 200.535156 298.957031 200.09375 299.519531 C 199.75 299.957031 199.414062 300.386719 198.648438 301.394531 C 197.195312 302.820312 196.203125 304.609375 195.773438 306.582031 C 194.484375 311.03125 196.542969 316.003906 200.878906 318.660156 C 204.027344 320.796875 207.925781 321.890625 212.089844 321.890625 C 214.324219 321.890625 216.636719 321.578125 218.953125 320.941406 C 223.089844 319.863281 225.675781 317.257812 227.566406 315.355469 L 228.136719 314.78125 C 230.582031 312.371094 233.019531 309.945312 235.511719 307.449219 C 267.25 274.949219 287.25 231.941406 290.378906 189.515625 C 291.5625 174.96875 290.105469 159.1875 285.921875 141.277344 Z M 369.558594 154.792969 C 361.027344 119.445312 342.625 85.796875 316.332031 57.480469 C 309.980469 50.648438 302.953125 44.070312 295.4375 37.921875 C 295.367188 37.867188 295.300781 37.8125 295.230469 37.757812 C 294.425781 37.148438 293.621094 36.519531 292.816406 35.886719 C 288.074219 32.183594 282.699219 27.984375 275.980469 25.890625 C 275.871094 25.855469 275.761719 25.824219 275.652344 25.796875 C 271.058594 24.589844 266.011719 25.121094 261.808594 27.253906 C 261.761719 27.277344 261.71875 27.300781 261.671875 27.324219 C 257.742188 29.421875 255.414062 33.082031 255.441406 37.117188 C 255.464844 41.101562 257.78125 44.691406 261.648438 46.738281 C 266.125 49.207031 271.332031 54.003906 277.355469 59.558594 C 278.796875 60.886719 280.273438 62.25 281.792969 63.625 C 287.894531 69.425781 294.007812 76.199219 301.023438 84.917969 C 307.351562 93.316406 316.132812 106.292969 321.914062 117.679688 C 327.355469 128.246094 331.675781 138.753906 334.773438 148.953125 C 337.96875 159.300781 339.308594 164.996094 340.449219 176.222656 C 342.179688 200.660156 337.210938 221.960938 331.5625 241.339844 C 321.335938 271.578125 306.375 296.648438 287.085938 315.863281 C 286.097656 316.78125 285.097656 317.699219 284.101562 318.613281 C 280.222656 322.171875 276.210938 325.855469 272.597656 330.132812 C 272.5625 330.179688 272.523438 330.21875 272.488281 330.265625 C 272.15625 330.679688 271.78125 331.066406 271.414062 331.457031 C 270.929688 331.96875 270.398438 332.53125 269.855469 333.175781 C 268.203125 334.6875 267.148438 336.675781 266.878906 338.820312 C 266.375 342.257812 267.6875 345.613281 270.425781 347.847656 C 273.097656 350.027344 276.675781 350.816406 279.847656 350.816406 C 281.789062 350.816406 283.574219 350.519531 284.914062 350.070312 C 285.898438 349.765625 286.847656 349.332031 287.789062 348.75 C 288.480469 348.398438 289.109375 348.039062 289.671875 347.714844 L 292.027344 346.355469 C 297.691406 343.066406 298.785156 342.40625 304.289062 338.363281 L 304.65625 338.09375 C 304.863281 337.945312 305.070312 337.800781 305.273438 337.648438 C 307.113281 336.351562 309.222656 334.820312 311.203125 332.933594 C 325.859375 318.828125 338.5625 301.453125 348.984375 281.253906 C 354.128906 271.144531 358.234375 261.628906 361.558594 252.117188 C 363.867188 245.351562 365.566406 238.457031 367.214844 231.785156 L 367.78125 229.492188 C 374.46875 201.699219 375.0625 176.566406 369.558594 154.792969 Z M 369.558594 154.792969 " fill-opacity="1" fill-rule="nonzero"/></g><path fill="#242f40" d="M 121.019531 281.4375 C 121.269531 272.226562 121.109375 263.007812 121.351562 253.792969 C 121.59375 232.710938 122.53125 211.640625 122.523438 190.554688 C 122.261719 169.492188 121.359375 148.441406 121.335938 127.371094 C 121.222656 113.824219 122.082031 100.28125 121.5625 86.734375 C 121.472656 84.449219 121.625 82.464844 120.167969 81.570312 C 118.871094 80.773438 115.800781 77.605469 107.742188 86.226562 C 103.855469 90.382812 100.269531 94.800781 96.4375 99.007812 C 75.429688 122.101562 67.796875 129.5625 67.207031 129.714844 C 67.097656 129.746094 66.953125 129.78125 66.84375 129.796875 C 66.882812 129.902344 62.179688 130.289062 59.964844 130.46875 C 47.175781 131.496094 41.898438 131.746094 29.117188 132.851562 C 20.796875 133.691406 12.464844 134.261719 4.136719 135.074219 C 2.578125 135.226562 1.609375 135.417969 1.644531 136.449219 C 1.667969 137.230469 2.058594 183.878906 0.921875 231.308594 C 0.800781 236.378906 0.0351562 241.796875 0.746094 246.804688 C 2.320312 249.652344 6.0625 249.941406 8.992188 249.902344 C 11.34375 249.914062 13.695312 249.945312 16.046875 249.960938 C 33.265625 250.074219 55.195312 249.859375 64.28125 248.480469 C 64.285156 248.480469 64.28125 248.484375 64.300781 248.488281 C 64.4375 248.464844 64.578125 248.445312 64.71875 248.421875 C 70.550781 254.488281 79.617188 263.644531 111.132812 291.136719 C 112.320312 292.171875 115.84375 296.902344 118.621094 295.308594 C 119.136719 295.015625 119.675781 294.675781 119.714844 294.03125 C 119.773438 293.632812 119.855469 293.238281 119.914062 292.839844 C 120.589844 289.074219 120.890625 285.257812 121.019531 281.4375 " fill-opacity="1" fill-rule="nonzero"/></svg>