<svg xmlns="http://www.w3.org/2000/svg" xmlns:xlink="http://www.w3.org/1999/xlink" width="500" zoomAndPan="magnify" viewBox="0 0 375 374.999991" height="500" preserveAspectRatio="xMidYMid meet" version="1.0"><defs><clipPath id="9b598651b6"><path d="M 143 39 L 194 39 L 194 114 L 143 114 Z M 143 39 " clip-rule="nonzero"/></clipPath><clipPath id="4f0e87ef21"><path d="M 139.402344 39.332031 L 192.8125 31.371094 L 204.640625 110.746094 L 151.230469 118.707031 Z M 139.402344 39.332031 " clip-rule="nonzero"/></clipPath><clipPath id="2acdc2d3cb"><path d="M 139.402344 39.332031 L 192.8125 31.371094 L 204.640625 110.746094 L 151.230469 118.707031 Z M 139.402344 39.332031 " clip-rule="nonzero"/></clipPath><clipPath id="405d12f8a1"><path d="M 139.402344 39.332031 L 192.8125 31.371094 L 204.640625 110.746094 L 151.230469 118.707031 Z M 139.402344 39.332031 " clip-rule="nonzero"/></clipPath><clipPath id="e46ba2db30"><path d="M 143 38 L 196 38 L 196 116 L 143 116 Z M 143 38 " clip-rule="nonzero"/></clipPath><clipPath id="d818fd982f"><path d="M 139.402344 39.332031 L 192.8125 31.371094 L 204.640625 110.746094 L 151.230469 118.707031 Z M 139.402344 39.332031 " clip-rule="nonzero"/></clipPath><clipPath id="6a3550bd82"><path d="M 139.402344 39.332031 L 192.8125 31.371094 L 204.640625 110.746094 L 151.230469 118.707031 Z M 139.402344 39.332031 " clip-rule="nonzero"/></clipPath><clipPath id="e53bbf07cf"><path d="M 139.402344 39.332031 L 192.8125 31.371094 L 204.640625 110.746094 L 151.230469 118.707031 Z M 139.402344 39.332031 " clip-rule="nonzero"/></clipPath><clipPath id="68af8adec8"><path d="M 256 185 L 330 185 L 330 236 L 256 236 Z M 256 185 " clip-rule="nonzero"/></clipPath><clipPath id="3e0e413446"><path d="M 337.492188 190.558594 L 327.253906 243.578125 L 248.457031 228.363281 L 258.695312 175.34375 Z M 337.492188 190.558594 " clip-rule="nonzero"/></clipPath><clipPath id="85a8a14a08"><path d="M 337.492188 190.558594 L 327.253906 243.578125 L 248.457031 228.363281 L 258.695312 175.34375 Z M 337.492188 190.558594 " clip-rule="nonzero"/></clipPath><clipPath id="deaa2eb7ea"><path d="M 337.492188 190.558594 L 327.253906 243.578125 L 248.457031 228.363281 L 258.695312 175.34375 Z M 337.492188 190.558594 " clip-rule="nonzero"/></clipPath><clipPath id="986e86422f"><path d="M 254 185 L 331 185 L 331 238 L 254 238 Z M 254 185 " clip-rule="nonzero"/></clipPath><clipPath id="8f9e08ac3c"><path d="M 337.492188 190.558594 L 327.253906 243.578125 L 248.457031 228.363281 L 258.695312 175.34375 Z M 337.492188 190.558594 " clip-rule="nonzero"/></clipPath><clipPath id="dc59b36180"><path d="M 337.492188 190.558594 L 327.253906 243.578125 L 248.457031 228.363281 L 258.695312 175.34375 Z M 337.492188 190.558594 " clip-rule="nonzero"/></clipPath><clipPath id="8b1f6140c5"><path d="M 337.492188 190.558594 L 327.253906 243.578125 L 248.457031 228.363281 L 258.695312 175.34375 Z M 337.492188 190.558594 " clip-rule="nonzero"/></clipPath><clipPath id="e9f6c2e1ea"><path d="M 56 211 L 127 211 L 127 267 L 56 267 Z M 56 211 " clip-rule="nonzero"/></clipPath><clipPath id="712486d2ac"><path d="M 72.632812 277.488281 L 42.519531 232.664062 L 109.132812 187.910156 L 139.246094 232.734375 Z M 72.632812 277.488281 " clip-rule="nonzero"/></clipPath><clipPath id="0d31c82fd6"><path d="M 72.632812 277.488281 L 42.519531 232.664062 L 109.132812 187.910156 L 139.246094 232.734375 Z M 72.632812 277.488281 " clip-rule="nonzero"/></clipPath><clipPath id="a6dace9803"><path d="M 72.632812 277.488281 L 42.519531 232.664062 L 109.132812 187.910156 L 139.246094 232.734375 Z M 72.632812 277.488281 " clip-rule="nonzero"/></clipPath><clipPath id="bf3b2494b3"><path d="M 55 210 L 128 210 L 128 267 L 55 267 Z M 55 210 " clip-rule="nonzero"/></clipPath><clipPath id="2bcf07233b"><path d="M 72.632812 277.488281 L 42.519531 232.664062 L 109.132812 187.910156 L 139.246094 232.734375 Z M 72.632812 277.488281 " clip-rule="nonzero"/></clipPath><clipPath id="6cf639e7d5"><path d="M 72.632812 277.488281 L 42.519531 232.664062 L 109.132812 187.910156 L 139.246094 232.734375 Z M 72.632812 277.488281 " clip-rule="nonzero"/></clipPath><clipPath id="4e9a0c7349"><path d="M 72.632812 277.488281 L 42.519531 232.664062 L 109.132812 187.910156 L 139.246094 232.734375 Z M 72.632812 277.488281 " clip-rule="nonzero"/></clipPath></defs><path fill="#29789a" d="M 304.824219 305.289062 C 320.617188 289.484375 332.839844 271.058594 341.160156 250.527344 C 349.195312 230.6875 353.269531 209.726562 353.269531 188.222656 C 353.269531 166.71875 349.195312 145.753906 341.160156 125.917969 C 332.839844 105.386719 320.617188 86.960938 304.824219 71.15625 C 289.035156 55.347656 270.628906 43.109375 250.117188 34.785156 C 230.300781 26.742188 209.359375 22.664062 187.875 22.664062 C 166.390625 22.664062 145.449219 26.742188 125.632812 34.785156 C 105.121094 43.109375 86.714844 55.347656 70.925781 71.15625 C 55.132812 86.960938 42.910156 105.386719 34.589844 125.917969 C 26.554688 145.753906 22.480469 166.71875 22.480469 188.222656 C 22.480469 209.726562 26.554688 230.6875 34.589844 250.527344 C 42.910156 271.058594 55.132812 289.484375 70.925781 305.289062 C 86.714844 321.097656 105.121094 333.332031 125.632812 341.65625 C 145.449219 349.703125 166.390625 353.78125 187.875 353.78125 C 209.359375 353.78125 230.300781 349.703125 250.117188 341.65625 C 270.628906 333.332031 289.035156 321.097656 304.824219 305.289062 Z M 61.335938 61.558594 C 78.417969 44.460938 98.335938 31.222656 120.539062 22.210938 C 141.980469 13.503906 164.636719 9.09375 187.875 9.09375 C 211.113281 9.09375 233.769531 13.503906 255.210938 22.210938 C 277.414062 31.222656 297.332031 44.460938 314.410156 61.558594 C 331.492188 78.65625 344.71875 98.59375 353.722656 120.820312 C 362.417969 142.28125 366.828125 164.960938 366.828125 188.222656 C 366.828125 211.484375 362.417969 234.160156 353.722656 255.625 C 344.71875 277.851562 331.492188 297.789062 314.410156 314.886719 C 297.332031 331.984375 277.414062 345.222656 255.210938 354.234375 C 233.769531 362.9375 211.113281 367.351562 187.875 367.351562 C 164.636719 367.351562 141.980469 362.9375 120.539062 354.234375 C 98.335938 345.222656 78.417969 331.984375 61.335938 314.886719 C 44.257812 297.789062 31.03125 277.851562 22.027344 255.625 C 13.332031 234.160156 8.921875 211.484375 8.921875 188.222656 C 8.921875 164.960938 13.332031 142.28125 22.027344 120.820312 C 31.03125 98.59375 44.257812 78.65625 61.335938 61.558594 " fill-opacity="1" fill-rule="nonzero"/><path fill="#fcb028" d="M 172.789062 195.914062 C 171.972656 194.316406 171.429688 192.609375 171.15625 190.871094 L 24.496094 214.125 C 27.167969 231.113281 32.488281 247.761719 40.457031 263.410156 C 48.144531 278.507812 58.296875 292.667969 70.914062 305.296875 L 175.902344 200.207031 C 174.613281 198.914062 173.574219 197.460938 172.789062 195.914062 Z M 351.253906 162.320312 L 204.59375 185.570312 C 204.320312 183.832031 203.777344 182.128906 202.960938 180.527344 C 202.175781 178.984375 201.136719 177.53125 199.847656 176.238281 L 304.835938 71.144531 C 317.453125 83.777344 327.605469 97.9375 335.292969 113.035156 C 343.261719 128.679688 348.582031 145.332031 351.253906 162.320312 " fill-opacity="1" fill-rule="nonzero"/><path fill="#1ba9e3" d="M 172.789062 180.527344 L 40.460938 113.035156 C 32.492188 128.683594 27.167969 145.332031 24.496094 162.320312 C 21.796875 179.472656 21.796875 196.972656 24.496094 214.125 L 171.15625 190.871094 C 170.878906 189.117188 170.878906 187.328125 171.15625 185.570312 C 171.429688 183.832031 171.972656 182.128906 172.789062 180.527344 Z M 351.253906 214.125 C 348.582031 231.113281 343.257812 247.761719 335.289062 263.410156 L 202.960938 195.914062 C 203.777344 194.316406 204.320312 192.609375 204.59375 190.871094 C 204.871094 189.117188 204.871094 187.328125 204.59375 185.570312 L 351.253906 162.320312 C 353.953125 179.472656 353.953125 196.972656 351.253906 214.125 " fill-opacity="1" fill-rule="nonzero"/><path fill="#1f9c48" d="M 262.988281 40.660156 C 247.355469 32.679688 230.722656 27.355469 213.753906 24.679688 L 190.523438 171.484375 C 192.257812 171.761719 193.960938 172.304688 195.5625 173.121094 C 197.105469 173.90625 198.554688 174.945312 199.847656 176.238281 L 304.835938 71.144531 C 292.21875 58.515625 278.070312 48.355469 262.988281 40.660156 Z M 185.226562 204.960938 L 161.996094 351.765625 C 145.027344 349.089844 128.394531 343.761719 112.761719 335.785156 C 97.679688 328.089844 83.53125 317.929688 70.914062 305.296875 L 175.902344 200.207031 C 177.195312 201.5 178.644531 202.535156 180.1875 203.324219 C 181.789062 204.140625 183.492188 204.683594 185.226562 204.960938 " fill-opacity="1" fill-rule="nonzero"/><path fill="#d395ff" d="M 161.996094 24.679688 C 145.027344 27.355469 128.394531 32.683594 112.761719 40.660156 L 180.1875 173.121094 C 181.789062 172.304688 183.492188 171.761719 185.226562 171.484375 C 186.980469 171.210938 188.769531 171.210938 190.523438 171.484375 L 213.753906 24.679688 C 196.617188 21.976562 179.132812 21.976562 161.996094 24.679688 Z M 262.988281 335.785156 C 247.355469 343.761719 230.722656 349.089844 213.753906 351.765625 C 196.617188 354.46875 179.132812 354.46875 161.996094 351.765625 L 185.226562 204.960938 C 186.980469 205.234375 188.769531 205.234375 190.523438 204.960938 C 192.257812 204.683594 193.960938 204.140625 195.5625 203.324219 L 262.988281 335.785156 " fill-opacity="1" fill-rule="nonzero"/><path fill="#ec393e" d="M 112.761719 40.660156 C 97.683594 48.355469 83.53125 58.515625 70.914062 71.144531 C 58.296875 83.777344 48.148438 97.9375 40.460938 113.035156 L 172.789062 180.527344 C 173.574219 178.984375 174.613281 177.53125 175.902344 176.238281 C 177.195312 174.945312 178.644531 173.90625 180.1875 173.121094 Z M 335.289062 263.410156 C 327.601562 278.503906 317.453125 292.667969 304.835938 305.296875 C 292.21875 317.929688 278.066406 328.089844 262.988281 335.785156 L 195.5625 203.324219 C 197.105469 202.535156 198.554688 201.5 199.847656 200.207031 C 201.136719 198.914062 202.175781 197.460938 202.960938 195.914062 L 335.289062 263.410156 " fill-opacity="1" fill-rule="nonzero"/><path fill="#fce621" d="M 372.992188 159.195312 C 372.074219 153.503906 366.722656 149.636719 361.035156 150.554688 C 355.351562 151.476562 351.488281 156.832031 352.40625 162.523438 C 353.324219 168.210938 358.675781 172.082031 364.363281 171.160156 C 370.046875 170.242188 373.910156 164.882812 372.992188 159.195312 Z M 2.757812 217.25 C 3.675781 222.941406 9.027344 226.808594 14.714844 225.886719 C 20.398438 224.96875 24.261719 219.613281 23.34375 213.921875 C 22.425781 208.230469 17.074219 204.363281 11.386719 205.285156 C 5.703125 206.203125 1.839844 211.558594 2.757812 217.25 Z M 158.25 373.425781 C 163.941406 374.308594 169.269531 370.410156 170.152344 364.714844 C 171.035156 359.019531 167.140625 353.683594 161.449219 352.800781 C 155.757812 351.914062 150.429688 355.816406 149.546875 361.511719 C 148.664062 367.207031 152.558594 372.542969 158.25 373.425781 Z M 217.5 3.019531 C 211.808594 2.132812 206.480469 6.035156 205.597656 11.730469 C 204.714844 17.425781 208.609375 22.761719 214.300781 23.644531 C 219.992188 24.527344 225.320312 20.628906 226.203125 14.933594 C 227.085938 9.234375 223.191406 3.902344 217.5 3.019531 Z M 354.683594 273.65625 C 357.28125 268.511719 355.222656 262.234375 350.085938 259.632812 C 344.945312 257.03125 338.671875 259.09375 336.074219 264.238281 C 333.476562 269.378906 335.535156 275.660156 340.675781 278.261719 C 345.8125 280.863281 352.085938 278.800781 354.683594 273.65625 Z M 21.066406 102.789062 C 18.46875 107.933594 20.527344 114.210938 25.664062 116.8125 C 30.804688 119.410156 37.078125 117.351562 39.675781 112.207031 C 42.273438 107.0625 40.214844 100.785156 35.074219 98.183594 C 29.9375 95.582031 23.664062 97.644531 21.066406 102.789062 Z M 55.15625 320.625 C 59.242188 324.6875 65.84375 324.667969 69.902344 320.578125 C 73.960938 316.492188 73.941406 309.882812 69.855469 305.820312 C 65.769531 301.757812 59.171875 301.777344 55.109375 305.863281 C 51.050781 309.953125 51.070312 316.5625 55.15625 320.625 Z M 320.59375 55.820312 C 316.507812 51.757812 309.90625 51.777344 305.847656 55.867188 C 301.789062 59.953125 301.808594 66.5625 305.894531 70.625 C 309.980469 74.6875 316.578125 74.667969 320.640625 70.578125 C 324.699219 66.492188 324.679688 59.882812 320.59375 55.820312 Z M 272.660156 355.484375 C 277.78125 352.851562 279.804688 346.5625 277.171875 341.433594 C 274.542969 336.308594 268.257812 334.285156 263.136719 336.917969 C 258.011719 339.550781 255.992188 345.839844 258.621094 350.96875 C 261.253906 356.09375 267.535156 358.117188 272.660156 355.484375 Z M 117.128906 25.476562 C 119.757812 30.605469 117.738281 36.894531 112.613281 39.527344 C 107.492188 42.160156 101.207031 40.136719 98.578125 35.011719 C 95.945312 29.882812 97.96875 23.589844 103.089844 20.957031 C 108.214844 18.324219 114.496094 20.347656 117.128906 25.476562 " fill-opacity="1" fill-rule="nonzero"/><path fill="#4d4d4d" d="M 362.71875 152.042969 C 362.246094 152.042969 361.769531 152.082031 361.296875 152.160156 C 358.976562 152.535156 356.9375 153.792969 355.5625 155.699219 C 354.1875 157.609375 353.632812 159.9375 354.007812 162.265625 C 354.382812 164.589844 355.640625 166.625 357.546875 168.003906 C 359.453125 169.382812 361.78125 169.933594 364.101562 169.558594 C 368.894531 168.78125 372.164062 164.25 371.390625 159.453125 C 371.015625 157.128906 369.757812 155.089844 367.851562 153.710938 C 366.335938 152.617188 364.554688 152.042969 362.71875 152.042969 Z M 362.675781 172.921875 C 360.164062 172.921875 357.722656 172.136719 355.648438 170.636719 C 353.039062 168.753906 351.320312 165.960938 350.804688 162.78125 C 350.292969 159.601562 351.046875 156.410156 352.929688 153.800781 C 354.816406 151.1875 357.601562 149.464844 360.777344 148.953125 C 363.957031 148.4375 367.144531 149.195312 369.753906 151.078125 C 372.359375 152.964844 374.082031 155.753906 374.59375 158.9375 C 375.652344 165.5 371.179688 171.703125 364.621094 172.765625 C 363.972656 172.871094 363.320312 172.921875 362.675781 172.921875 Z M 13.054688 206.773438 C 12.589844 206.773438 12.121094 206.808594 11.648438 206.886719 C 6.855469 207.660156 3.585938 212.195312 4.359375 216.992188 C 4.734375 219.316406 5.992188 221.355469 7.898438 222.730469 C 9.804688 224.109375 12.132812 224.664062 14.453125 224.285156 C 16.773438 223.910156 18.8125 222.652344 20.1875 220.742188 C 21.5625 218.835938 22.117188 216.503906 21.742188 214.179688 C 21.042969 209.859375 17.296875 206.773438 13.054688 206.773438 Z M 13.023438 227.648438 C 10.515625 227.648438 8.074219 226.867188 5.996094 225.363281 C 3.390625 223.480469 1.667969 220.6875 1.15625 217.511719 C 0.0976562 210.941406 4.570312 204.738281 11.128906 203.679688 C 17.6875 202.621094 23.882812 207.097656 24.945312 213.660156 C 26.003906 220.226562 21.53125 226.429688 14.972656 227.492188 C 14.320312 227.597656 13.667969 227.648438 13.023438 227.648438 Z M 159.832031 354.296875 C 157.976562 354.296875 156.179688 354.882812 154.652344 356 C 152.753906 357.386719 151.511719 359.433594 151.148438 361.761719 C 150.789062 364.085938 151.355469 366.414062 152.742188 368.316406 C 154.128906 370.214844 156.175781 371.460938 158.5 371.820312 C 160.824219 372.183594 163.148438 371.617188 165.046875 370.226562 C 166.945312 368.835938 168.1875 366.792969 168.550781 364.464844 C 168.910156 362.136719 168.34375 359.8125 166.957031 357.910156 C 165.570312 356.011719 163.523438 354.765625 161.199219 354.402344 C 160.742188 354.335938 160.285156 354.296875 159.832031 354.296875 Z M 159.875 375.175781 C 159.253906 375.175781 158.628906 375.128906 158 375.03125 C 154.820312 374.535156 152.023438 372.832031 150.125 370.230469 C 148.226562 367.632812 147.449219 364.445312 147.945312 361.261719 C 148.4375 358.078125 150.140625 355.277344 152.738281 353.378906 C 155.335938 351.476562 158.519531 350.703125 161.695312 351.195312 C 164.878906 351.691406 167.675781 353.394531 169.574219 355.992188 C 171.476562 358.59375 172.25 361.78125 171.753906 364.964844 C 171.261719 368.144531 169.558594 370.945312 166.960938 372.847656 C 164.875 374.375 162.410156 375.175781 159.875 375.175781 Z M 215.882812 4.515625 C 214.027344 4.515625 212.230469 5.101562 210.703125 6.21875 C 208.804688 7.605469 207.5625 9.652344 207.199219 11.980469 C 206.839844 14.304688 207.40625 16.632812 208.792969 18.53125 C 210.179688 20.433594 212.226562 21.679688 214.550781 22.039062 C 216.875 22.402344 219.199219 21.835938 221.097656 20.445312 C 222.996094 19.054688 224.238281 17.011719 224.601562 14.683594 C 225.34375 9.882812 222.050781 5.367188 217.25 4.621094 C 216.792969 4.550781 216.335938 4.515625 215.882812 4.515625 Z M 215.925781 25.394531 C 215.304688 25.394531 214.679688 25.347656 214.054688 25.25 C 210.871094 24.753906 208.074219 23.050781 206.175781 20.449219 C 204.277344 17.851562 203.5 14.664062 203.996094 11.480469 C 204.488281 8.296875 206.191406 5.5 208.789062 3.597656 C 211.386719 1.695312 214.570312 0.921875 217.75 1.414062 C 224.3125 2.433594 228.824219 8.609375 227.804688 15.179688 C 227.3125 18.363281 225.609375 21.164062 223.011719 23.066406 C 220.925781 24.59375 218.460938 25.394531 215.925781 25.394531 Z M 341.40625 276.8125 C 345.738281 279.003906 351.042969 277.257812 353.238281 272.925781 C 354.296875 270.824219 354.476562 268.433594 353.746094 266.195312 C 353.011719 263.960938 351.449219 262.144531 349.351562 261.082031 C 347.253906 260.019531 344.867188 259.839844 342.632812 260.574219 C 340.398438 261.308594 338.585938 262.867188 337.523438 264.96875 C 335.332031 269.308594 337.074219 274.617188 341.40625 276.8125 Z M 345.359375 281.003906 C 343.53125 281.003906 341.679688 280.589844 339.941406 279.710938 C 334.015625 276.707031 331.628906 269.441406 334.628906 263.503906 C 336.082031 260.628906 338.5625 258.492188 341.621094 257.488281 C 344.679688 256.484375 347.945312 256.730469 350.816406 258.183594 C 353.6875 259.636719 355.824219 262.125 356.828125 265.183594 C 357.832031 268.246094 357.582031 271.515625 356.128906 274.390625 C 354.011719 278.585938 349.761719 281.003906 345.359375 281.003906 Z M 30.386719 98.6875 C 27.167969 98.6875 24.0625 100.457031 22.511719 103.523438 C 21.453125 105.621094 21.273438 108.011719 22.003906 110.246094 C 22.738281 112.484375 24.300781 114.300781 26.398438 115.363281 C 30.730469 117.554688 36.035156 115.8125 38.226562 111.472656 C 40.417969 107.136719 38.675781 101.828125 34.34375 99.632812 C 33.074219 98.992188 31.71875 98.6875 30.386719 98.6875 Z M 30.351562 119.554688 C 28.523438 119.554688 26.671875 119.140625 24.933594 118.261719 C 22.0625 116.808594 19.925781 114.320312 18.921875 111.261719 C 17.917969 108.199219 18.167969 104.929688 19.621094 102.054688 C 22.617188 96.121094 29.878906 93.734375 35.808594 96.734375 C 41.734375 99.734375 44.121094 107.003906 41.121094 112.9375 C 39.003906 117.132812 34.753906 119.554688 30.351562 119.554688 Z M 62.507812 304.410156 C 62.496094 304.410156 62.488281 304.410156 62.480469 304.410156 C 60.128906 304.414062 57.917969 305.339844 56.261719 307.007812 C 54.605469 308.679688 53.695312 310.894531 53.703125 313.25 C 53.710938 315.605469 54.632812 317.8125 56.300781 319.472656 C 57.96875 321.132812 60.179688 322.03125 62.535156 322.035156 C 64.886719 322.027344 67.09375 321.105469 68.75 319.433594 C 72.171875 315.988281 72.15625 310.398438 68.714844 306.972656 C 67.050781 305.320312 64.847656 304.410156 62.507812 304.410156 Z M 62.503906 325.28125 C 59.300781 325.28125 56.285156 324.039062 54.011719 321.777344 C 51.730469 319.503906 50.46875 316.480469 50.457031 313.257812 C 50.449219 310.039062 51.691406 307.007812 53.960938 304.722656 C 56.230469 302.433594 59.25 301.171875 62.46875 301.160156 C 62.480469 301.160156 62.496094 301.160156 62.507812 301.160156 C 65.710938 301.160156 68.726562 302.40625 71 304.667969 C 75.710938 309.355469 75.734375 317.007812 71.050781 321.722656 C 68.785156 324.007812 65.761719 325.273438 62.542969 325.28125 C 62.53125 325.28125 62.515625 325.28125 62.503906 325.28125 Z M 313.246094 54.410156 C 313.234375 54.410156 313.226562 54.410156 313.214844 54.410156 C 310.863281 54.417969 308.65625 55.339844 307 57.011719 C 303.578125 60.457031 303.59375 66.046875 307.035156 69.472656 C 308.699219 71.125 310.902344 72.035156 313.242188 72.035156 C 313.253906 72.035156 313.261719 72.035156 313.273438 72.035156 C 315.621094 72.027344 317.832031 71.101562 319.488281 69.433594 C 321.144531 67.765625 322.054688 65.546875 322.046875 63.195312 C 322.039062 60.839844 321.117188 58.628906 319.449219 56.972656 C 317.789062 55.316406 315.585938 54.410156 313.246094 54.410156 Z M 313.242188 75.285156 C 310.039062 75.285156 307.023438 74.039062 304.75 71.777344 C 300.039062 67.089844 300.015625 59.4375 304.699219 54.722656 C 306.964844 52.4375 309.988281 51.171875 313.207031 51.160156 C 313.21875 51.160156 313.234375 51.160156 313.246094 51.160156 C 316.449219 51.160156 319.464844 52.40625 321.738281 54.667969 C 324.019531 56.9375 325.28125 59.964844 325.292969 63.183594 C 325.300781 66.40625 324.058594 69.4375 321.789062 71.722656 C 319.519531 74.007812 316.5 75.273438 313.28125 75.285156 C 313.269531 75.285156 313.253906 75.285156 313.242188 75.285156 Z M 267.882812 337.390625 C 266.53125 337.390625 265.160156 337.703125 263.878906 338.363281 C 259.558594 340.582031 257.847656 345.902344 260.066406 350.226562 C 261.140625 352.320312 262.964844 353.871094 265.203125 354.589844 C 267.441406 355.3125 269.828125 355.117188 271.917969 354.039062 C 274.011719 352.96875 275.558594 351.140625 276.277344 348.898438 C 277 346.660156 276.804688 344.269531 275.730469 342.175781 C 274.171875 339.136719 271.082031 337.390625 267.882812 337.390625 Z M 267.910156 358.265625 C 266.671875 358.265625 265.425781 358.074219 264.210938 357.683594 C 261.144531 356.695312 258.648438 354.574219 257.179688 351.710938 C 254.144531 345.792969 256.484375 338.511719 262.394531 335.472656 C 268.304688 332.433594 275.582031 334.777344 278.613281 340.691406 C 280.085938 343.558594 280.351562 346.824219 279.367188 349.890625 C 278.382812 352.960938 276.261719 355.460938 273.402344 356.929688 C 271.671875 357.820312 269.796875 358.265625 267.910156 358.265625 Z M 107.835938 21.429688 C 106.484375 21.429688 105.113281 21.742188 103.832031 22.40625 C 99.511719 24.625 97.804688 29.945312 100.019531 34.265625 C 102.238281 38.589844 107.554688 40.300781 111.871094 38.082031 C 113.964844 37.007812 115.515625 35.183594 116.234375 32.941406 C 116.953125 30.699219 116.757812 28.3125 115.683594 26.21875 C 114.125 23.179688 111.035156 21.429688 107.835938 21.429688 Z M 107.875 42.300781 C 103.496094 42.300781 99.265625 39.910156 97.136719 35.753906 C 94.101562 29.835938 96.441406 22.550781 102.347656 19.515625 C 108.257812 16.476562 115.535156 18.820312 118.570312 24.734375 C 120.039062 27.601562 120.308594 30.867188 119.320312 33.933594 C 118.335938 37.003906 116.21875 39.5 113.355469 40.972656 C 111.597656 41.875 109.722656 42.300781 107.875 42.300781 " fill-opacity="1" fill-rule="nonzero"/><path fill="#ffffff" d="M 194.417969 194.773438 C 190.804688 198.386719 184.945312 198.386719 181.332031 194.773438 C 177.71875 191.15625 177.71875 185.289062 181.332031 181.671875 C 184.945312 178.054688 190.804688 178.054688 194.417969 181.671875 C 198.03125 185.289062 198.03125 191.15625 194.417969 194.773438 Z M 200.769531 175.316406 C 199.25 173.796875 197.527344 172.601562 195.691406 171.730469 L 187.875 118.070312 L 180.058594 171.730469 C 178.222656 172.601562 176.5 173.796875 174.980469 175.316406 C 167.863281 182.445312 167.863281 194 174.980469 201.128906 C 182.101562 208.253906 193.648438 208.253906 200.769531 201.128906 C 207.886719 194 207.886719 182.445312 200.769531 175.316406 " fill-opacity="1" fill-rule="nonzero"/><path fill="#4d4d4d" d="M 187.875 180.582031 C 185.835938 180.582031 183.917969 181.378906 182.480469 182.820312 C 181.039062 184.261719 180.246094 186.179688 180.246094 188.222656 C 180.246094 190.261719 181.039062 192.179688 182.480469 193.625 C 183.917969 195.066406 185.835938 195.859375 187.875 195.859375 C 189.914062 195.859375 191.832031 195.066406 193.269531 193.625 C 194.710938 192.179688 195.503906 190.261719 195.503906 188.222656 C 195.503906 186.179688 194.710938 184.261719 193.269531 182.820312 C 191.832031 181.378906 189.914062 180.582031 187.875 180.582031 Z M 187.875 199.101562 C 185.089844 199.101562 182.304688 198.042969 180.183594 195.917969 C 175.945312 191.675781 175.945312 184.769531 180.183594 180.523438 C 184.425781 176.277344 191.324219 176.277344 195.566406 180.523438 C 199.804688 184.769531 199.804688 191.675781 195.566406 195.917969 C 193.445312 198.042969 190.660156 199.101562 187.875 199.101562 " fill-opacity="1" fill-rule="nonzero"/><path fill="#4d4d4d" d="M 187.875 129.324219 L 181.535156 172.824219 L 180.753906 173.199219 C 179.035156 174.011719 177.480469 175.113281 176.128906 176.464844 C 172.992188 179.605469 171.261719 183.78125 171.261719 188.222656 C 171.261719 192.664062 172.992188 196.839844 176.128906 199.980469 C 179.265625 203.121094 183.4375 204.851562 187.875 204.851562 C 192.3125 204.851562 196.484375 203.121094 199.621094 199.980469 C 202.757812 196.839844 204.488281 192.664062 204.488281 188.222656 C 204.488281 183.78125 202.757812 179.605469 199.621094 176.464844 C 198.269531 175.113281 196.714844 174.011719 194.996094 173.199219 L 194.214844 172.824219 Z M 187.875 208.085938 C 182.789062 208.085938 177.707031 206.152344 173.835938 202.277344 C 166.09375 194.527344 166.09375 181.917969 173.835938 174.167969 C 175.238281 172.761719 176.832031 171.582031 178.574219 170.660156 L 187.875 106.816406 L 197.175781 170.660156 C 198.917969 171.582031 200.511719 172.761719 201.914062 174.167969 C 209.65625 181.917969 209.65625 194.527344 201.914062 202.277344 C 198.046875 206.152344 192.960938 208.085938 187.875 208.085938 " fill-opacity="1" fill-rule="nonzero"/><g clip-path="url(#9b598651b6)"><g clip-path="url(#4f0e87ef21)"><g clip-path="url(#2acdc2d3cb)"><g clip-path="url(#405d12f8a1)"><path fill="#ffffff" d="M 177.480469 101.460938 C 178.585938 102.589844 181.050781 105.964844 178.742188 110.050781 C 175.996094 114.917969 166.582031 115.691406 165.269531 106.851562 L 165.015625 105.160156 C 166.851562 98.503906 174.324219 97.828125 177.480469 101.460938 Z M 185.742188 44.339844 C 173.886719 34.984375 147.101562 38.269531 143.757812 58.492188 C 142.992188 63.125 143.75 67.960938 143.75 67.960938 L 155.738281 65.996094 C 155.425781 58.160156 158.738281 52.296875 167.3125 52.269531 C 172.300781 52.25 177.105469 55.464844 175.914062 60.625 C 174.765625 65.578125 168.96875 65.128906 164.449219 72.730469 C 160.519531 79.34375 163.851562 91.570312 164.601562 95.609375 L 175.664062 94.261719 C 175.316406 90.988281 175.011719 85.640625 175.570312 81.320312 C 176.265625 75.945312 182.332031 72.9375 186.183594 70.4375 C 195.007812 64.710938 195.945312 52.394531 185.742188 44.339844 Z M 185.742188 44.339844 " fill-opacity="1" fill-rule="nonzero"/></g></g></g></g><g clip-path="url(#e46ba2db30)"><g clip-path="url(#d818fd982f)"><g clip-path="url(#6a3550bd82)"><g clip-path="url(#e53bbf07cf)"><path fill="#141313" d="M 180.101562 102.828125 C 180.640625 103.875 181.019531 105.054688 181.105469 106.292969 C 181.199219 107.527344 180.976562 108.792969 180.523438 109.917969 L 180.34375 110.335938 L 180.144531 110.742188 C 180.074219 110.875 179.988281 111.015625 179.90625 111.152344 L 179.785156 111.359375 C 179.742188 111.425781 179.695312 111.488281 179.648438 111.554688 C 179.292969 112.082031 178.855469 112.542969 178.386719 112.957031 L 178.027344 113.253906 C 177.90625 113.347656 177.777344 113.4375 177.652344 113.527344 C 177.585938 113.570312 177.523438 113.617188 177.460938 113.65625 L 177.261719 113.777344 C 177.128906 113.851562 176.996094 113.933594 176.859375 114.003906 C 176.316406 114.289062 175.742188 114.507812 175.160156 114.667969 C 173.804688 115.015625 172.394531 115.164062 170.992188 114.941406 C 170.296875 114.832031 169.601562 114.644531 168.957031 114.339844 C 168.308594 114.039062 167.703125 113.644531 167.1875 113.164062 C 166.949219 112.933594 166.625 112.636719 166.296875 112.242188 C 166.207031 112.148438 166.128906 112.042969 166.050781 111.933594 C 165.96875 111.824219 165.886719 111.710938 165.800781 111.597656 C 165.71875 111.480469 165.648438 111.355469 165.570312 111.230469 C 165.496094 111.101562 165.414062 110.972656 165.347656 110.835938 C 165.28125 110.699219 165.214844 110.5625 165.148438 110.421875 C 165.113281 110.351562 165.082031 110.28125 165.050781 110.207031 C 165.023438 110.132812 164.996094 110.0625 164.96875 109.988281 C 164.917969 109.839844 164.863281 109.691406 164.8125 109.539062 C 164.761719 109.390625 164.730469 109.234375 164.691406 109.082031 C 164.65625 108.925781 164.613281 108.773438 164.589844 108.617188 C 164.566406 108.464844 164.546875 108.308594 164.527344 108.15625 C 164.480469 107.847656 164.484375 107.539062 164.484375 107.242188 C 164.484375 107.113281 164.4375 106.980469 164.753906 106.925781 C 165.097656 106.871094 165.246094 106.984375 165.296875 107.121094 C 165.375 107.332031 165.445312 107.542969 165.535156 107.75 C 165.621094 107.953125 165.703125 108.15625 165.769531 108.363281 C 166.011719 109.007812 166.304688 109.625 166.667969 110.191406 C 167.042969 110.75 167.488281 111.253906 167.996094 111.671875 C 169.015625 112.507812 170.296875 112.960938 171.582031 112.984375 C 172.9375 113.015625 174.289062 112.679688 175.441406 112.035156 C 176.015625 111.710938 176.539062 111.304688 176.976562 110.835938 L 177.136719 110.660156 L 177.28125 110.472656 C 177.328125 110.410156 177.382812 110.351562 177.425781 110.285156 L 177.550781 110.085938 C 177.644531 109.960938 177.710938 109.820312 177.78125 109.683594 C 177.855469 109.554688 177.914062 109.394531 177.980469 109.25 C 178.519531 107.9375 178.617188 106.589844 178.230469 105.332031 C 178.039062 104.703125 177.742188 104.097656 177.355469 103.539062 C 177.164062 103.257812 176.949219 102.992188 176.722656 102.75 C 176.664062 102.6875 176.609375 102.628906 176.550781 102.574219 L 176.34375 102.371094 L 176.160156 102.191406 C 176.097656 102.136719 176.039062 102.09375 175.980469 102.042969 C 175.277344 101.476562 174.394531 101.113281 173.464844 100.960938 C 172.539062 100.808594 171.566406 100.863281 170.652344 101.109375 C 170.265625 101.210938 169.730469 101.363281 169.160156 101.625 C 168.589844 101.882812 167.992188 102.257812 167.472656 102.710938 C 166.949219 103.160156 166.515625 103.683594 166.207031 104.125 C 166.125 104.230469 166.054688 104.335938 165.992188 104.433594 C 165.925781 104.53125 165.867188 104.617188 165.816406 104.691406 C 165.714844 104.84375 165.644531 104.957031 165.597656 105.003906 C 165.5 105.105469 165.40625 105.300781 165.003906 105.148438 C 164.636719 105.011719 164.628906 104.773438 164.652344 104.605469 L 164.683594 104.375 L 164.734375 104.148438 C 164.769531 103.996094 164.804688 103.84375 164.847656 103.691406 C 164.945312 103.394531 165.042969 103.09375 165.179688 102.808594 C 165.9375 101.101562 167.398438 99.617188 169.207031 98.847656 C 171.007812 98.054688 173.089844 97.929688 175.015625 98.503906 C 175.5625 98.667969 176.101562 98.882812 176.613281 99.164062 C 177.125 99.445312 177.617188 99.78125 178.058594 100.183594 C 178.164062 100.28125 178.257812 100.378906 178.359375 100.476562 L 178.496094 100.613281 L 178.558594 100.671875 L 178.636719 100.75 C 178.835938 100.960938 179.019531 101.171875 179.195312 101.394531 C 179.546875 101.839844 179.851562 102.316406 180.101562 102.828125 Z M 195.070312 59.675781 C 195.007812 60.625 194.828125 61.5625 194.59375 62.488281 L 194.398438 63.179688 C 194.332031 63.410156 194.246094 63.628906 194.167969 63.855469 C 194.019531 64.3125 193.8125 64.746094 193.628906 65.1875 C 192.8125 66.917969 191.710938 68.519531 190.363281 69.871094 C 189.699219 70.558594 188.964844 71.167969 188.203125 71.738281 C 187.820312 72.003906 187.414062 72.296875 187.058594 72.519531 C 186.691406 72.75 186.328125 72.980469 185.972656 73.199219 C 184.546875 74.085938 183.179688 74.921875 181.941406 75.828125 C 181.414062 76.214844 180.808594 76.671875 180.199219 77.207031 C 179.894531 77.472656 179.589844 77.761719 179.300781 78.066406 C 179.011719 78.375 178.730469 78.699219 178.480469 79.046875 C 177.980469 79.742188 177.585938 80.511719 177.378906 81.359375 L 177.339844 81.519531 C 177.328125 81.574219 177.316406 81.648438 177.300781 81.710938 L 177.230469 82.105469 C 177.175781 82.367188 177.140625 82.632812 177.09375 82.898438 C 177.007812 83.429688 176.933594 83.964844 176.871094 84.496094 C 176.617188 86.617188 176.496094 88.65625 176.429688 90.242188 C 176.359375 91.832031 176.332031 92.96875 176.28125 93.316406 C 176.226562 93.6875 176.246094 94.300781 175.640625 94.25 C 175.542969 94.242188 175.460938 94.214844 175.386719 94.179688 C 175.292969 94.242188 175.171875 94.285156 175.046875 94.3125 C 174.070312 94.515625 173.089844 94.734375 172.101562 94.882812 L 168.371094 95.4375 L 166.503906 95.710938 L 165.429688 95.863281 L 164.863281 95.941406 L 164.578125 95.984375 L 164.433594 96.003906 L 164.363281 96.015625 L 164.328125 96.019531 C 164.316406 96.019531 164.300781 96.027344 164.296875 96.015625 C 164.179688 95.472656 164.058594 94.914062 163.929688 94.355469 L 163.59375 92.933594 C 163.378906 92.015625 163.167969 91.09375 162.972656 90.167969 C 162.585938 88.320312 162.25 86.449219 162.023438 84.554688 C 161.828125 82.890625 161.726562 81.203125 161.796875 79.5 C 161.835938 78.648438 161.90625 77.792969 162.046875 76.9375 C 162.1875 76.082031 162.386719 75.230469 162.664062 74.386719 L 162.890625 73.761719 C 162.96875 73.554688 163.066406 73.351562 163.15625 73.144531 C 163.242188 72.9375 163.351562 72.738281 163.457031 72.539062 L 163.613281 72.238281 L 163.78125 71.957031 C 164.214844 71.210938 164.695312 70.488281 165.226562 69.792969 C 166.277344 68.402344 167.535156 67.144531 168.886719 66.054688 C 169.625 65.449219 170.390625 64.902344 171.121094 64.375 C 171.488281 64.109375 171.84375 63.851562 172.179688 63.589844 C 172.511719 63.328125 172.824219 63.0625 173.105469 62.792969 C 173.660156 62.253906 174.058594 61.695312 174.300781 61.054688 C 174.335938 60.976562 174.355469 60.890625 174.382812 60.808594 C 174.410156 60.726562 174.4375 60.648438 174.457031 60.558594 L 174.519531 60.300781 L 174.566406 60.027344 C 174.617188 59.667969 174.648438 59.308594 174.628906 58.964844 C 174.609375 58.617188 174.5625 58.28125 174.464844 57.960938 C 174.371094 57.636719 174.242188 57.328125 174.074219 57.035156 C 173.746094 56.449219 173.257812 55.929688 172.679688 55.492188 C 171.511719 54.617188 169.972656 54.109375 168.421875 53.976562 C 168.136719 53.957031 167.847656 53.941406 167.558594 53.941406 L 167.339844 53.945312 C 167.269531 53.945312 167.1875 53.949219 167.113281 53.953125 L 166.65625 53.976562 C 166.050781 54.023438 165.449219 54.082031 164.871094 54.203125 C 163.710938 54.425781 162.636719 54.828125 161.703125 55.398438 C 160.773438 55.980469 159.992188 56.738281 159.371094 57.652344 C 158.761719 58.574219 158.296875 59.632812 157.992188 60.777344 C 157.832031 61.375 157.65625 62.128906 157.523438 63.007812 C 157.488281 63.222656 157.460938 63.449219 157.433594 63.683594 C 157.402344 63.914062 157.382812 64.15625 157.359375 64.398438 L 157.347656 64.539062 L 157.34375 64.558594 C 157.34375 64.554688 157.34375 64.609375 157.34375 64.625 C 157.339844 64.75 157.339844 64.878906 157.335938 65.007812 C 157.332031 65.257812 157.328125 65.511719 157.320312 65.769531 C 157.316406 66.269531 157.3125 66.777344 157.308594 67.289062 C 156.734375 67.363281 156.15625 67.441406 155.570312 67.519531 C 155.285156 67.554688 155 67.589844 154.714844 67.628906 L 154.503906 67.65625 L 154.417969 67.664062 L 154.359375 67.671875 L 154.121094 67.691406 C 153.492188 67.753906 152.859375 67.8125 152.238281 67.871094 C 150.996094 67.980469 149.796875 68.082031 148.722656 68.167969 C 146.578125 68.335938 144.949219 68.433594 144.550781 68.40625 C 144.242188 68.386719 143.742188 68.429688 143.757812 67.941406 C 143.761719 67.820312 143.800781 67.722656 143.859375 67.636719 C 143.773438 67.519531 143.714844 67.367188 143.683594 67.207031 C 143.4375 66 143.242188 64.773438 143.1875 63.535156 C 143.113281 61.589844 143.183594 59.621094 143.519531 57.679688 C 143.691406 56.710938 143.914062 55.746094 144.207031 54.800781 C 144.503906 53.859375 144.859375 52.929688 145.28125 52.027344 C 146.113281 50.222656 147.230469 48.539062 148.542969 47.027344 C 149.851562 45.507812 151.386719 44.183594 153.042969 43.039062 C 154.796875 41.835938 156.710938 40.863281 158.703125 40.121094 C 160.699219 39.375 162.769531 38.847656 164.875 38.519531 C 166.976562 38.1875 169.113281 38.058594 171.246094 38.121094 C 173.382812 38.1875 175.519531 38.4375 177.628906 38.902344 C 179.945312 39.417969 182.226562 40.21875 184.359375 41.398438 C 184.625 41.550781 184.890625 41.695312 185.148438 41.859375 L 185.539062 42.101562 L 185.921875 42.355469 C 186.179688 42.519531 186.425781 42.707031 186.675781 42.886719 C 186.925781 43.066406 187.152344 43.261719 187.390625 43.445312 C 187.871094 43.8125 188.3125 44.230469 188.769531 44.628906 C 189.203125 45.058594 189.648438 45.472656 190.050781 45.933594 C 190.472656 46.378906 190.851562 46.863281 191.238281 47.339844 L 191.78125 48.089844 C 191.964844 48.335938 192.121094 48.605469 192.292969 48.863281 C 192.953125 49.910156 193.519531 51.027344 193.972656 52.199219 C 194.871094 54.542969 195.273438 57.117188 195.070312 59.675781 Z M 189.664062 51.832031 C 188.515625 49.589844 186.777344 47.625 184.71875 46.042969 C 182.726562 44.480469 180.34375 43.402344 177.839844 42.683594 C 176.585938 42.332031 175.300781 42.058594 173.996094 41.882812 C 173.347656 41.785156 172.691406 41.726562 172.035156 41.667969 C 171.378906 41.625 170.71875 41.582031 170.058594 41.578125 C 167.421875 41.53125 164.777344 41.789062 162.195312 42.328125 C 159.207031 42.957031 156.351562 44.160156 153.875 45.851562 C 151.394531 47.546875 149.3125 49.734375 147.757812 52.273438 C 147.390625 52.871094 146.949219 53.703125 146.546875 54.726562 C 146.136719 55.75 145.765625 56.964844 145.484375 58.300781 C 145.335938 58.96875 145.234375 59.660156 145.132812 60.378906 C 145.050781 61.101562 144.976562 61.84375 144.929688 62.597656 C 144.832031 64.101562 144.804688 65.648438 144.824219 67.125 C 144.824219 67.144531 144.824219 67.164062 144.824219 67.183594 C 146.015625 66.882812 147.21875 66.613281 148.421875 66.363281 C 149.613281 66.113281 150.804688 65.871094 151.996094 65.636719 L 153.785156 65.285156 L 154.007812 65.238281 C 154.054688 65.230469 154.054688 65.230469 154.074219 65.226562 L 154.121094 65.214844 L 154.308594 65.171875 C 154.425781 65.140625 154.550781 65.121094 154.652344 65.085938 C 154.640625 64.945312 154.625 64.808594 154.621094 64.679688 L 154.609375 64.484375 L 154.617188 63.964844 C 154.636719 63.273438 154.675781 62.578125 154.769531 61.882812 C 154.941406 60.496094 155.285156 59.097656 155.859375 57.757812 C 156.441406 56.429688 157.261719 55.144531 158.363281 54.109375 C 158.910156 53.589844 159.511719 53.128906 160.152344 52.734375 C 160.792969 52.335938 161.476562 52.023438 162.171875 51.765625 C 163.332031 51.34375 164.53125 51.078125 165.71875 50.957031 C 166.015625 50.929688 166.316406 50.894531 166.613281 50.882812 L 167.058594 50.863281 C 167.203125 50.855469 167.351562 50.847656 167.511719 50.851562 C 168.128906 50.84375 168.75 50.882812 169.363281 50.96875 C 170.59375 51.140625 171.808594 51.488281 172.957031 52.054688 C 174.097656 52.625 175.179688 53.421875 176.015625 54.496094 C 176.453125 55.046875 176.824219 55.667969 177.09375 56.335938 C 177.367188 57.003906 177.539062 57.714844 177.605469 58.425781 C 177.671875 59.136719 177.632812 59.847656 177.523438 60.527344 C 177.414062 61.195312 177.21875 61.902344 176.90625 62.5625 C 176.601562 63.230469 176.179688 63.84375 175.710938 64.371094 C 175.246094 64.898438 174.742188 65.339844 174.246094 65.734375 C 173.253906 66.519531 172.296875 67.136719 171.417969 67.789062 C 170.539062 68.433594 169.730469 69.09375 168.992188 69.820312 C 168.25 70.542969 167.582031 71.328125 166.976562 72.167969 C 166.820312 72.375 166.675781 72.59375 166.53125 72.808594 C 166.378906 73.023438 166.246094 73.25 166.105469 73.46875 L 166 73.636719 L 165.917969 73.789062 L 165.742188 74.097656 C 165.632812 74.308594 165.535156 74.527344 165.429688 74.742188 C 165.046875 75.632812 164.761719 76.605469 164.550781 77.621094 C 164.308594 78.796875 164.199219 80.03125 164.1875 81.28125 C 164.167969 82.527344 164.234375 83.792969 164.355469 85.058594 C 164.597656 87.597656 165.042969 90.132812 165.476562 92.703125 C 165.503906 92.867188 165.535156 93.042969 165.570312 93.238281 C 165.589844 93.332031 165.605469 93.433594 165.625 93.535156 C 165.636719 93.585938 165.644531 93.636719 165.65625 93.691406 C 165.660156 93.710938 165.660156 93.707031 165.660156 93.710938 L 165.660156 93.71875 L 165.664062 93.738281 C 165.675781 93.839844 165.691406 93.953125 165.710938 94.078125 C 165.785156 94.078125 165.871094 94.070312 165.964844 94.066406 L 166.03125 94.058594 L 166.085938 94.058594 L 166.152344 94.050781 C 166.355469 94.027344 166.558594 94.007812 166.769531 93.984375 C 167.609375 93.898438 168.496094 93.8125 169.410156 93.730469 C 171.207031 93.570312 173.09375 93.441406 174.890625 93.398438 C 174.871094 93.320312 174.855469 93.242188 174.839844 93.167969 C 174.554688 91.566406 174.367188 89.941406 174.257812 88.308594 C 174.175781 87.105469 174.132812 85.894531 174.136719 84.679688 L 174.148438 83.765625 L 174.179688 82.847656 C 174.199219 82.539062 174.214844 82.234375 174.238281 81.925781 L 174.277344 81.464844 C 174.292969 81.308594 174.300781 81.164062 174.328125 80.984375 C 174.410156 80.300781 174.574219 79.617188 174.8125 78.96875 C 175.054688 78.320312 175.363281 77.707031 175.71875 77.128906 C 176.433594 75.976562 177.324219 74.984375 178.269531 74.121094 C 180.167969 72.382812 182.289062 71.074219 184.28125 69.796875 C 185.300781 69.148438 186.15625 68.5625 186.960938 67.839844 C 187.761719 67.125 188.472656 66.324219 189.074219 65.453125 C 190.445312 63.46875 191.214844 61.109375 191.265625 58.738281 C 191.332031 56.359375 190.746094 53.992188 189.664062 51.832031 Z M 189.664062 51.832031 " fill-opacity="1" fill-rule="nonzero"/></g></g></g></g><g clip-path="url(#68af8adec8)"><g clip-path="url(#3e0e413446)"><g clip-path="url(#85a8a14a08)"><g clip-path="url(#deaa2eb7ea)"><path fill="#ffffff" d="M 266.242188 205.828125 C 264.808594 206.5 260.804688 207.703125 257.71875 204.167969 C 254.042969 199.960938 256.4375 190.824219 265.214844 192.523438 L 266.894531 192.847656 C 272.558594 196.789062 270.714844 204.058594 266.242188 205.828125 Z M 317.371094 232.597656 C 330.132812 224.523438 335.933594 198.171875 317.972656 188.300781 C 313.859375 186.039062 309.042969 185.144531 309.042969 185.144531 L 306.914062 197.105469 C 314.410156 199.417969 318.839844 204.488281 316.015625 212.585938 C 314.378906 217.292969 309.75 220.761719 305.277344 217.917969 C 300.984375 215.191406 303.335938 209.875 297.667969 203.085938 C 292.738281 197.179688 280.097656 196.261719 276.039062 195.628906 L 273.632812 206.507812 C 276.835938 207.269531 281.984375 208.757812 285.871094 210.722656 C 290.710938 213.164062 291.53125 219.882812 292.609375 224.347656 C 295.082031 234.574219 306.386719 239.550781 317.371094 232.597656 Z M 317.371094 232.597656 " fill-opacity="1" fill-rule="nonzero"/></g></g></g></g><g clip-path="url(#986e86422f)"><g clip-path="url(#8f9e08ac3c)"><g clip-path="url(#dc59b36180)"><g clip-path="url(#8b1f6140c5)"><path fill="#141313" d="M 264.078125 207.847656 C 262.910156 208.007812 261.675781 207.972656 260.480469 207.644531 C 259.285156 207.324219 258.164062 206.691406 257.253906 205.890625 L 256.917969 205.582031 L 256.601562 205.257812 C 256.496094 205.152344 256.394531 205.019531 256.292969 204.902344 L 256.140625 204.714844 C 256.089844 204.652344 256.046875 204.585938 256 204.523438 C 255.621094 204.011719 255.332031 203.445312 255.097656 202.867188 L 254.933594 202.429688 C 254.886719 202.28125 254.847656 202.132812 254.804688 201.984375 C 254.785156 201.910156 254.761719 201.835938 254.746094 201.757812 L 254.699219 201.53125 C 254.671875 201.382812 254.636719 201.230469 254.617188 201.078125 C 254.527344 200.472656 254.511719 199.859375 254.554688 199.253906 C 254.675781 197.859375 255.007812 196.480469 255.679688 195.234375 C 256.015625 194.613281 256.421875 194.019531 256.925781 193.511719 C 257.425781 193.003906 257.996094 192.5625 258.621094 192.234375 C 258.917969 192.085938 259.308594 191.878906 259.785156 191.699219 C 259.90625 191.648438 260.03125 191.609375 260.160156 191.570312 C 260.289062 191.53125 260.421875 191.488281 260.558594 191.449219 C 260.695312 191.40625 260.839844 191.386719 260.984375 191.351562 C 261.128906 191.324219 261.277344 191.289062 261.429688 191.269531 C 261.578125 191.253906 261.730469 191.238281 261.886719 191.222656 C 261.964844 191.214844 262.042969 191.207031 262.121094 191.199219 C 262.199219 191.199219 262.277344 191.199219 262.355469 191.199219 C 262.511719 191.199219 262.671875 191.199219 262.828125 191.199219 C 262.988281 191.203125 263.144531 191.222656 263.300781 191.234375 C 263.460938 191.253906 263.617188 191.265625 263.773438 191.292969 C 263.925781 191.324219 264.078125 191.355469 264.230469 191.390625 C 264.535156 191.449219 264.824219 191.550781 265.105469 191.652344 C 265.226562 191.695312 265.371094 191.695312 265.3125 192.011719 C 265.25 192.351562 265.09375 192.457031 264.949219 192.457031 C 264.722656 192.464844 264.5 192.457031 264.28125 192.472656 C 264.058594 192.488281 263.839844 192.496094 263.621094 192.492188 C 262.933594 192.507812 262.253906 192.578125 261.597656 192.734375 C 260.945312 192.898438 260.324219 193.152344 259.761719 193.496094 C 258.632812 194.175781 257.78125 195.238281 257.328125 196.4375 C 256.851562 197.707031 256.71875 199.09375 256.945312 200.394531 C 257.058594 201.046875 257.265625 201.675781 257.566406 202.238281 L 257.679688 202.449219 L 257.804688 202.648438 C 257.851562 202.714844 257.890625 202.785156 257.9375 202.847656 L 258.082031 203.03125 C 258.171875 203.160156 258.28125 203.269531 258.386719 203.382812 C 258.484375 203.496094 258.613281 203.605469 258.726562 203.714844 C 259.789062 204.660156 261.027344 205.199219 262.339844 205.25 C 262.996094 205.28125 263.667969 205.199219 264.324219 205.023438 C 264.648438 204.933594 264.972656 204.820312 265.277344 204.6875 C 265.351562 204.652344 265.425781 204.621094 265.5 204.585938 L 265.992188 204.339844 C 266.0625 204.304688 266.121094 204.261719 266.1875 204.222656 C 266.957031 203.746094 267.59375 203.035156 268.042969 202.210938 C 268.496094 201.386719 268.765625 200.453125 268.839844 199.507812 C 268.871094 199.109375 268.910156 198.550781 268.851562 197.929688 C 268.796875 197.304688 268.644531 196.617188 268.386719 195.976562 C 268.136719 195.332031 267.785156 194.75 267.472656 194.3125 C 267.398438 194.199219 267.324219 194.097656 267.253906 194.007812 C 267.183594 193.914062 267.121094 193.828125 267.066406 193.757812 C 266.957031 193.609375 266.875 193.507812 266.847656 193.445312 C 266.785156 193.320312 266.632812 193.164062 266.90625 192.835938 C 267.15625 192.539062 267.386719 192.609375 267.539062 192.6875 L 267.746094 192.792969 L 267.941406 192.917969 C 268.074219 193 268.207031 193.082031 268.332031 193.175781 C 268.582031 193.363281 268.832031 193.558594 269.054688 193.78125 C 270.414062 195.0625 271.328125 196.933594 271.457031 198.894531 C 271.605469 200.855469 271.03125 202.863281 269.847656 204.484375 C 269.511719 204.949219 269.128906 205.386719 268.691406 205.777344 C 268.257812 206.164062 267.78125 206.519531 267.253906 206.800781 C 267.125 206.867188 267.003906 206.925781 266.878906 206.988281 L 266.703125 207.070312 L 266.625 207.109375 L 266.527344 207.15625 C 266.261719 207.277344 266 207.378906 265.730469 207.472656 C 265.195312 207.652344 264.644531 207.78125 264.078125 207.847656 Z M 299.808594 236.304688 C 298.933594 235.929688 298.109375 235.445312 297.3125 234.921875 L 296.726562 234.507812 C 296.53125 234.367188 296.351562 234.210938 296.164062 234.0625 C 295.785156 233.773438 295.445312 233.433594 295.089844 233.113281 C 293.730469 231.765625 292.582031 230.195312 291.753906 228.476562 C 291.328125 227.621094 290.996094 226.726562 290.714844 225.820312 C 290.589844 225.371094 290.449219 224.890625 290.355469 224.480469 C 290.257812 224.058594 290.164062 223.640625 290.074219 223.230469 C 289.714844 221.589844 289.378906 220.023438 288.933594 218.554688 C 288.746094 217.929688 288.515625 217.203125 288.214844 216.453125 C 288.0625 216.078125 287.894531 215.695312 287.699219 215.320312 C 287.507812 214.945312 287.292969 214.570312 287.046875 214.222656 C 286.558594 213.519531 285.964844 212.890625 285.234375 212.414062 L 285.097656 212.324219 C 285.046875 212.292969 284.984375 212.257812 284.929688 212.226562 L 284.582031 212.023438 C 284.351562 211.886719 284.113281 211.765625 283.878906 211.632812 C 283.402344 211.375 282.925781 211.128906 282.445312 210.894531 C 280.527344 209.949219 278.644531 209.15625 277.167969 208.566406 C 275.695312 207.972656 274.632812 207.570312 274.320312 207.40625 C 273.988281 207.230469 273.402344 207.042969 273.652344 206.492188 C 273.691406 206.402344 273.746094 206.332031 273.804688 206.273438 C 273.777344 206.164062 273.773438 206.039062 273.789062 205.910156 C 273.921875 204.921875 274.042969 203.925781 274.230469 202.941406 L 274.949219 199.238281 L 275.3125 197.390625 L 275.523438 196.324219 L 275.636719 195.761719 L 275.691406 195.480469 L 275.722656 195.339844 L 275.734375 195.269531 L 275.742188 195.234375 C 275.746094 195.222656 275.746094 195.203125 275.753906 195.203125 C 276.308594 195.277344 276.875 195.34375 277.445312 195.410156 L 278.898438 195.566406 C 279.835938 195.667969 280.773438 195.773438 281.710938 195.898438 C 283.585938 196.148438 285.457031 196.453125 287.320312 196.867188 C 288.957031 197.234375 290.582031 197.703125 292.164062 198.335938 C 292.953125 198.65625 293.738281 199.003906 294.5 199.421875 C 295.257812 199.839844 295.996094 200.308594 296.699219 200.847656 L 297.210938 201.273438 C 297.382812 201.417969 297.542969 201.578125 297.707031 201.726562 C 297.875 201.875 298.023438 202.046875 298.179688 202.210938 L 298.410156 202.460938 L 298.617188 202.710938 C 299.179688 203.367188 299.703125 204.0625 300.179688 204.792969 C 301.144531 206.246094 301.910156 207.851562 302.492188 209.488281 C 302.816406 210.382812 303.078125 211.289062 303.332031 212.15625 C 303.460938 212.585938 303.585938 213.007812 303.722656 213.414062 C 303.859375 213.816406 304.003906 214.199219 304.164062 214.550781 C 304.492188 215.253906 304.886719 215.816406 305.410156 216.253906 C 305.46875 216.3125 305.542969 216.363281 305.613281 216.414062 C 305.679688 216.46875 305.746094 216.519531 305.824219 216.566406 L 306.046875 216.710938 L 306.289062 216.84375 C 306.609375 217.015625 306.9375 217.164062 307.269531 217.257812 C 307.605469 217.355469 307.9375 217.425781 308.273438 217.441406 C 308.609375 217.457031 308.941406 217.4375 309.273438 217.378906 C 309.9375 217.261719 310.589844 216.976562 311.195312 216.574219 C 312.40625 215.765625 313.394531 214.480469 314.035156 213.0625 C 314.152344 212.800781 314.261719 212.53125 314.355469 212.257812 L 314.425781 212.054688 C 314.449219 211.984375 314.472656 211.90625 314.492188 211.835938 L 314.625 211.394531 C 314.78125 210.808594 314.925781 210.222656 315 209.636719 C 315.175781 208.472656 315.15625 207.324219 314.929688 206.253906 C 314.6875 205.183594 314.234375 204.191406 313.578125 203.304688 C 312.910156 202.425781 312.066406 201.632812 311.089844 200.96875 C 310.578125 200.617188 309.921875 200.199219 309.140625 199.785156 C 308.949219 199.675781 308.742188 199.574219 308.53125 199.472656 C 308.324219 199.367188 308.105469 199.269531 307.882812 199.167969 L 307.753906 199.109375 L 307.734375 199.097656 C 307.738281 199.097656 307.691406 199.082031 307.675781 199.074219 C 307.554688 199.03125 307.4375 198.988281 307.316406 198.941406 C 307.082031 198.855469 306.84375 198.765625 306.601562 198.675781 C 306.132812 198.503906 305.652344 198.332031 305.171875 198.160156 C 305.292969 197.589844 305.414062 197.019531 305.535156 196.441406 C 305.59375 196.164062 305.65625 195.882812 305.714844 195.597656 L 305.761719 195.390625 L 305.78125 195.304688 L 305.792969 195.246094 L 305.851562 195.015625 C 306.003906 194.402344 306.160156 193.789062 306.308594 193.183594 C 306.617188 191.972656 306.917969 190.808594 307.195312 189.765625 C 307.75 187.6875 308.199219 186.121094 308.355469 185.753906 C 308.480469 185.46875 308.605469 184.984375 309.058594 185.160156 C 309.171875 185.203125 309.253906 185.273438 309.3125 185.359375 C 309.453125 185.3125 309.617188 185.308594 309.777344 185.332031 C 310.996094 185.503906 312.21875 185.726562 313.402344 186.085938 C 315.265625 186.660156 317.097656 187.378906 318.816406 188.347656 C 319.675781 188.828125 320.507812 189.359375 321.304688 189.949219 C 322.09375 190.542969 322.851562 191.1875 323.5625 191.882812 C 324.988281 193.269531 326.207031 194.878906 327.199219 196.621094 C 328.195312 198.363281 328.933594 200.25 329.460938 202.191406 C 330.015625 204.246094 330.296875 206.371094 330.335938 208.5 C 330.375 210.628906 330.183594 212.757812 329.796875 214.851562 C 329.40625 216.945312 328.820312 219 328.050781 220.996094 C 327.28125 222.988281 326.335938 224.917969 325.195312 226.753906 C 323.941406 228.765625 322.429688 230.65625 320.605469 232.273438 C 320.375 232.472656 320.148438 232.675781 319.910156 232.867188 L 319.550781 233.152344 L 319.183594 233.429688 C 318.941406 233.617188 318.683594 233.789062 318.433594 233.964844 C 318.179688 234.140625 317.921875 234.289062 317.667969 234.453125 C 317.160156 234.785156 316.621094 235.0625 316.09375 235.359375 C 315.546875 235.625 315.003906 235.90625 314.4375 236.132812 C 313.878906 236.382812 313.296875 236.582031 312.714844 236.785156 L 311.832031 237.050781 C 311.535156 237.140625 311.230469 237.199219 310.929688 237.277344 C 309.722656 237.550781 308.480469 237.714844 307.226562 237.753906 C 304.714844 237.820312 302.15625 237.347656 299.808594 236.304688 Z M 309.003906 233.808594 C 311.5 233.46875 313.929688 232.484375 316.105469 231.070312 C 318.242188 229.710938 320.050781 227.820312 321.5625 225.699219 C 322.308594 224.628906 322.992188 223.511719 323.59375 222.339844 C 323.898438 221.757812 324.175781 221.160156 324.445312 220.558594 C 324.707031 219.953125 324.960938 219.347656 325.1875 218.726562 C 326.109375 216.253906 326.746094 213.671875 327.09375 211.058594 C 327.492188 208.03125 327.308594 204.9375 326.53125 202.039062 C 325.761719 199.136719 324.386719 196.449219 322.507812 194.140625 C 322.066406 193.59375 321.429688 192.902344 320.597656 192.179688 C 319.769531 191.453125 318.746094 190.699219 317.578125 189.992188 C 317 189.628906 316.378906 189.304688 315.734375 188.96875 C 315.082031 188.652344 314.40625 188.332031 313.710938 188.042969 C 312.324219 187.449219 310.875 186.910156 309.476562 186.4375 C 309.457031 186.429688 309.4375 186.421875 309.417969 186.417969 C 309.308594 187.640625 309.164062 188.863281 309 190.082031 C 308.839844 191.289062 308.671875 192.492188 308.5 193.695312 L 308.234375 195.5 L 308.203125 195.726562 C 308.195312 195.773438 308.195312 195.773438 308.191406 195.792969 L 308.1875 195.84375 L 308.167969 196.03125 C 308.15625 196.152344 308.136719 196.277344 308.132812 196.382812 C 308.269531 196.421875 308.402344 196.449219 308.527344 196.488281 L 308.714844 196.542969 L 309.203125 196.722656 C 309.847656 196.972656 310.488281 197.238281 311.113281 197.558594 C 312.367188 198.183594 313.570312 198.972656 314.644531 199.957031 C 315.703125 200.949219 316.640625 202.148438 317.253906 203.53125 C 317.5625 204.21875 317.796875 204.941406 317.957031 205.675781 C 318.117188 206.414062 318.183594 207.160156 318.199219 207.902344 C 318.210938 209.136719 318.0625 210.355469 317.785156 211.519531 C 317.707031 211.804688 317.644531 212.097656 317.558594 212.382812 L 317.429688 212.808594 C 317.386719 212.953125 317.34375 213.09375 317.289062 213.242188 C 317.089844 213.828125 316.847656 214.398438 316.5625 214.949219 C 315.992188 216.050781 315.257812 217.085938 314.339844 217.976562 C 313.425781 218.867188 312.316406 219.621094 311.023438 220.054688 C 310.359375 220.28125 309.648438 220.425781 308.929688 220.460938 C 308.210938 220.496094 307.484375 220.421875 306.789062 220.246094 C 306.097656 220.070312 305.441406 219.800781 304.835938 219.46875 C 304.242188 219.144531 303.640625 218.726562 303.117188 218.214844 C 302.59375 217.703125 302.152344 217.097656 301.8125 216.484375 C 301.46875 215.871094 301.21875 215.246094 301.011719 214.648438 C 300.601562 213.449219 300.335938 212.34375 300.015625 211.300781 C 299.699219 210.257812 299.34375 209.273438 298.902344 208.335938 C 298.46875 207.398438 297.949219 206.507812 297.359375 205.652344 C 297.214844 205.4375 297.058594 205.230469 296.902344 205.019531 C 296.75 204.808594 296.582031 204.609375 296.421875 204.402344 L 296.296875 204.25 L 296.179688 204.117188 L 295.949219 203.851562 C 295.789062 203.679688 295.613281 203.511719 295.445312 203.34375 C 294.734375 202.683594 293.910156 202.089844 293.019531 201.558594 C 291.992188 200.9375 290.863281 200.425781 289.691406 199.996094 C 288.519531 199.566406 287.304688 199.207031 286.070312 198.898438 C 283.597656 198.285156 281.058594 197.863281 278.488281 197.417969 C 278.324219 197.390625 278.148438 197.363281 277.953125 197.328125 C 277.859375 197.316406 277.757812 197.300781 277.65625 197.28125 C 277.601562 197.273438 277.550781 197.265625 277.496094 197.257812 C 277.480469 197.257812 277.480469 197.257812 277.476562 197.253906 L 277.46875 197.253906 L 277.449219 197.25 C 277.351562 197.230469 277.238281 197.207031 277.113281 197.179688 C 277.089844 197.253906 277.070312 197.335938 277.042969 197.425781 L 277.023438 197.492188 L 277.015625 197.527344 L 277.007812 197.546875 L 276.996094 197.605469 C 276.945312 197.804688 276.898438 198.007812 276.851562 198.210938 C 276.652344 199.03125 276.441406 199.898438 276.214844 200.789062 C 275.765625 202.535156 275.261719 204.359375 274.703125 206.066406 C 274.785156 206.074219 274.863281 206.085938 274.9375 206.097656 C 276.546875 206.359375 278.140625 206.71875 279.71875 207.160156 C 280.878906 207.484375 282.035156 207.84375 283.179688 208.25 L 284.039062 208.566406 L 284.894531 208.902344 C 285.175781 209.023438 285.460938 209.136719 285.742188 209.261719 L 286.164062 209.453125 C 286.308594 209.519531 286.441406 209.574219 286.601562 209.660156 C 287.21875 209.964844 287.808594 210.34375 288.339844 210.789062 C 288.871094 211.230469 289.351562 211.726562 289.773438 212.253906 C 290.625 213.308594 291.265625 214.476562 291.765625 215.660156 C 292.773438 218.027344 293.300781 220.460938 293.847656 222.765625 C 294.117188 223.941406 294.386719 224.945312 294.800781 225.945312 C 295.210938 226.933594 295.730469 227.871094 296.347656 228.730469 C 297.765625 230.683594 299.738281 232.1875 301.957031 233.027344 C 304.175781 233.878906 306.605469 234.113281 309.003906 233.808594 Z M 309.003906 233.808594 " fill-opacity="1" fill-rule="nonzero"/></g></g></g></g><g clip-path="url(#e9f6c2e1ea)"><g clip-path="url(#712486d2ac)"><g clip-path="url(#0d31c82fd6)"><g clip-path="url(#a6dace9803)"><path fill="#ffffff" d="M 112.40625 216.429688 C 112.949219 214.945312 114.941406 211.273438 119.621094 211.601562 C 125.195312 211.996094 129.9375 220.164062 122.515625 225.148438 L 121.09375 226.101562 C 114.296875 227.296875 110.480469 220.839844 112.40625 216.429688 Z M 57.269531 233.484375 C 53.90625 248.207031 68.371094 270.988281 88.070312 265.332031 C 92.582031 264.035156 96.625 261.273438 96.625 261.273438 L 89.707031 251.289062 C 82.761719 254.933594 76.042969 254.457031 72.335938 246.726562 C 70.183594 242.230469 71.019531 236.507812 76.195312 235.371094 C 81.160156 234.28125 83.242188 239.710938 92.050781 240.53125 C 99.710938 241.242188 109.324219 232.984375 112.648438 230.574219 L 106.683594 221.160156 C 103.875 222.875 99.175781 225.449219 95.03125 226.800781 C 89.878906 228.476562 84.5625 224.289062 80.648438 221.882812 C 71.6875 216.371094 60.164062 220.8125 57.269531 233.484375 Z M 57.269531 233.484375 " fill-opacity="1" fill-rule="nonzero"/></g></g></g></g><g clip-path="url(#bf3b2494b3)"><g clip-path="url(#2bcf07233b)"><g clip-path="url(#6cf639e7d5)"><g clip-path="url(#4e9a0c7349)"><path fill="#141313" d="M 112.515625 213.476562 C 113.230469 212.539062 114.132812 211.691406 115.214844 211.082031 C 116.289062 210.46875 117.527344 210.125 118.738281 210.050781 L 119.195312 210.035156 L 119.644531 210.042969 C 119.796875 210.042969 119.960938 210.066406 120.117188 210.078125 L 120.355469 210.101562 C 120.433594 210.109375 120.511719 210.125 120.589844 210.140625 C 121.222656 210.234375 121.824219 210.433594 122.398438 210.675781 L 122.824219 210.871094 C 122.960938 210.945312 123.09375 211.023438 123.230469 211.097656 C 123.296875 211.136719 123.363281 211.171875 123.429688 211.214844 L 123.621094 211.34375 C 123.75 211.429688 123.878906 211.511719 124 211.605469 C 124.492188 211.976562 124.9375 212.398438 125.332031 212.859375 C 126.226562 213.933594 126.964844 215.140625 127.363281 216.503906 C 127.566406 217.179688 127.695312 217.886719 127.695312 218.601562 C 127.703125 219.3125 127.605469 220.03125 127.394531 220.703125 C 127.289062 221.019531 127.15625 221.441406 126.945312 221.90625 C 126.898438 222.023438 126.835938 222.140625 126.769531 222.257812 C 126.707031 222.378906 126.640625 222.5 126.574219 222.628906 C 126.503906 222.753906 126.417969 222.871094 126.339844 222.992188 C 126.253906 223.117188 126.179688 223.246094 126.082031 223.363281 C 125.988281 223.484375 125.890625 223.601562 125.792969 223.722656 C 125.742188 223.78125 125.691406 223.84375 125.640625 223.902344 C 125.585938 223.957031 125.53125 224.015625 125.476562 224.070312 C 125.363281 224.179688 125.253906 224.292969 125.140625 224.40625 C 125.023438 224.511719 124.898438 224.609375 124.777344 224.710938 C 124.652344 224.808594 124.535156 224.914062 124.402344 225 C 124.273438 225.089844 124.140625 225.175781 124.011719 225.257812 C 123.753906 225.429688 123.472656 225.558594 123.207031 225.6875 C 123.089844 225.742188 122.988281 225.84375 122.804688 225.578125 C 122.609375 225.292969 122.644531 225.109375 122.75 225.003906 C 122.902344 224.839844 123.066406 224.691406 123.210938 224.523438 C 123.359375 224.355469 123.507812 224.195312 123.667969 224.042969 C 124.144531 223.550781 124.574219 223.019531 124.929688 222.449219 C 125.277344 221.871094 125.539062 221.253906 125.695312 220.613281 C 126.019531 219.335938 125.875 217.980469 125.347656 216.808594 C 124.792969 215.574219 123.910156 214.496094 122.828125 213.734375 C 122.289062 213.351562 121.699219 213.054688 121.089844 212.863281 L 120.863281 212.792969 L 120.628906 212.742188 C 120.550781 212.726562 120.476562 212.703125 120.398438 212.691406 L 120.167969 212.664062 C 120.011719 212.636719 119.855469 212.636719 119.703125 212.628906 C 119.554688 212.617188 119.386719 212.632812 119.226562 212.636719 C 117.808594 212.710938 116.550781 213.203125 115.582031 214.089844 C 115.09375 214.53125 114.675781 215.0625 114.335938 215.652344 C 114.164062 215.945312 114.019531 216.253906 113.894531 216.5625 C 113.863281 216.640625 113.835938 216.714844 113.808594 216.792969 L 113.714844 217.066406 L 113.632812 217.308594 C 113.609375 217.390625 113.59375 217.460938 113.574219 217.535156 C 113.367188 218.414062 113.417969 219.367188 113.675781 220.269531 C 113.9375 221.175781 114.40625 222.027344 115.019531 222.746094 C 115.277344 223.054688 115.644531 223.472656 116.125 223.875 C 116.601562 224.277344 117.199219 224.660156 117.828125 224.933594 C 118.460938 225.210938 119.121094 225.378906 119.648438 225.46875 C 119.78125 225.5 119.90625 225.515625 120.019531 225.53125 C 120.136719 225.546875 120.238281 225.5625 120.328125 225.578125 C 120.511719 225.605469 120.640625 225.617188 120.707031 225.640625 C 120.839844 225.6875 121.054688 225.6875 121.09375 226.117188 C 121.125 226.503906 120.914062 226.613281 120.75 226.667969 L 120.527344 226.738281 L 120.300781 226.789062 C 120.148438 226.820312 119.996094 226.859375 119.84375 226.882812 C 119.535156 226.921875 119.21875 226.960938 118.902344 226.960938 C 117.035156 227.011719 115.066406 226.328125 113.59375 225.023438 C 112.109375 223.738281 111.097656 221.910156 110.796875 219.925781 C 110.707031 219.359375 110.667969 218.78125 110.703125 218.199219 C 110.738281 217.613281 110.828125 217.027344 111.003906 216.457031 C 111.046875 216.316406 111.09375 216.191406 111.140625 216.058594 L 111.203125 215.875 L 111.230469 215.792969 L 111.269531 215.691406 C 111.371094 215.421875 111.484375 215.160156 111.609375 214.90625 C 111.863281 214.402344 112.160156 213.921875 112.515625 213.476562 Z M 67.113281 218.476562 C 68 218.125 68.925781 217.886719 69.859375 217.699219 L 70.566406 217.578125 C 70.800781 217.539062 71.042969 217.523438 71.277344 217.496094 C 71.753906 217.4375 72.234375 217.4375 72.710938 217.414062 C 74.625 217.410156 76.546875 217.714844 78.34375 218.351562 C 79.25 218.65625 80.117188 219.058594 80.957031 219.5 C 81.363281 219.734375 81.800781 219.972656 82.152344 220.203125 C 82.523438 220.429688 82.882812 220.660156 83.234375 220.890625 C 84.644531 221.796875 85.988281 222.675781 87.339844 223.402344 C 87.914062 223.710938 88.585938 224.0625 89.332031 224.382812 C 89.703125 224.542969 90.09375 224.695312 90.496094 224.824219 C 90.898438 224.957031 91.3125 225.070312 91.730469 225.144531 C 92.574219 225.300781 93.4375 225.328125 94.292969 225.148438 L 94.453125 225.117188 C 94.511719 225.105469 94.582031 225.082031 94.644531 225.066406 L 95.03125 224.964844 C 95.289062 224.902344 95.546875 224.820312 95.804688 224.746094 C 96.320312 224.59375 96.835938 224.433594 97.34375 224.261719 C 99.367188 223.582031 101.261719 222.8125 102.726562 222.195312 C 104.191406 221.574219 105.226562 221.109375 105.5625 221.007812 C 105.921875 220.898438 106.46875 220.617188 106.683594 221.1875 C 106.714844 221.277344 106.730469 221.363281 106.726562 221.445312 C 106.828125 221.503906 106.914062 221.59375 106.992188 221.695312 C 107.597656 222.492188 108.214844 223.28125 108.773438 224.113281 L 110.875 227.246094 L 111.921875 228.8125 L 112.523438 229.71875 L 112.835938 230.195312 L 112.996094 230.433594 L 113.074219 230.554688 L 113.117188 230.617188 L 113.136719 230.644531 C 113.140625 230.65625 113.15625 230.667969 113.148438 230.675781 C 112.703125 231.011719 112.253906 231.363281 111.804688 231.71875 L 110.664062 232.632812 C 109.925781 233.222656 109.1875 233.804688 108.433594 234.378906 C 106.929688 235.523438 105.386719 236.628906 103.769531 237.644531 C 102.351562 238.539062 100.871094 239.351562 99.300781 240.019531 C 98.515625 240.351562 97.710938 240.65625 96.878906 240.894531 C 96.046875 241.132812 95.191406 241.320312 94.3125 241.433594 L 93.648438 241.496094 C 93.425781 241.511719 93.203125 241.511719 92.976562 241.519531 C 92.753906 241.535156 92.527344 241.515625 92.300781 241.511719 L 91.960938 241.496094 L 91.640625 241.464844 C 90.777344 241.394531 89.917969 241.269531 89.0625 241.089844 C 87.355469 240.738281 85.679688 240.140625 84.113281 239.390625 C 83.253906 238.980469 82.429688 238.523438 81.636719 238.089844 C 81.242188 237.875 80.855469 237.664062 80.472656 237.472656 C 80.09375 237.28125 79.722656 237.113281 79.359375 236.976562 C 78.632812 236.707031 77.957031 236.589844 77.277344 236.644531 C 77.191406 236.644531 77.105469 236.664062 77.019531 236.675781 C 76.933594 236.683594 76.847656 236.695312 76.761719 236.714844 L 76.5 236.769531 L 76.234375 236.847656 C 75.886719 236.953125 75.550781 237.078125 75.246094 237.246094 C 74.941406 237.410156 74.65625 237.597656 74.40625 237.824219 C 74.15625 238.046875 73.933594 238.296875 73.742188 238.574219 C 73.351562 239.125 73.09375 239.785156 72.945312 240.496094 C 72.65625 241.925781 72.859375 243.535156 73.40625 244.988281 C 73.507812 245.257812 73.621094 245.527344 73.746094 245.785156 L 73.839844 245.980469 C 73.871094 246.046875 73.910156 246.117188 73.945312 246.183594 L 74.160156 246.589844 C 74.464844 247.113281 74.777344 247.632812 75.132812 248.101562 C 75.832031 249.050781 76.65625 249.847656 77.574219 250.449219 C 78.496094 251.039062 79.515625 251.421875 80.609375 251.589844 C 81.703125 251.746094 82.859375 251.710938 84.023438 251.492188 C 84.632812 251.382812 85.390625 251.214844 86.238281 250.960938 C 86.449219 250.898438 86.667969 250.828125 86.890625 250.75 C 87.113281 250.679688 87.335938 250.59375 87.566406 250.507812 L 87.695312 250.460938 L 87.71875 250.453125 C 87.714844 250.457031 87.761719 250.433594 87.777344 250.429688 C 87.894531 250.375 88.007812 250.324219 88.125 250.269531 C 88.355469 250.167969 88.585938 250.0625 88.820312 249.957031 C 89.273438 249.746094 89.734375 249.53125 90.199219 249.316406 C 90.515625 249.800781 90.832031 250.292969 91.152344 250.785156 C 91.304688 251.027344 91.460938 251.269531 91.617188 251.511719 L 91.734375 251.691406 L 91.777344 251.765625 L 91.933594 252.019531 C 92.253906 252.566406 92.578125 253.109375 92.898438 253.644531 C 93.535156 254.71875 94.140625 255.761719 94.679688 256.695312 C 95.75 258.558594 96.539062 259.988281 96.683594 260.359375 C 96.796875 260.644531 97.050781 261.078125 96.605469 261.273438 C 96.492188 261.324219 96.386719 261.332031 96.285156 261.3125 C 96.21875 261.441406 96.105469 261.5625 95.972656 261.660156 C 94.988281 262.394531 93.964844 263.097656 92.871094 263.679688 C 91.144531 264.582031 89.335938 265.363281 87.4375 265.894531 C 86.488281 266.152344 85.523438 266.367188 84.542969 266.507812 C 83.5625 266.644531 82.574219 266.722656 81.578125 266.730469 C 79.589844 266.75 77.589844 266.464844 75.660156 265.929688 C 73.726562 265.398438 71.871094 264.582031 70.125 263.574219 C 68.285156 262.507812 66.589844 261.199219 65.0625 259.71875 C 63.53125 258.234375 62.167969 256.589844 60.96875 254.832031 C 59.765625 253.074219 58.734375 251.199219 57.875 249.242188 C 57.015625 247.289062 56.324219 245.25 55.839844 243.144531 C 55.3125 240.832031 55.050781 238.425781 55.203125 235.996094 C 55.226562 235.691406 55.246094 235.386719 55.28125 235.082031 L 55.332031 234.628906 L 55.398438 234.171875 C 55.4375 233.867188 55.496094 233.566406 55.554688 233.261719 C 55.609375 232.960938 55.6875 232.671875 55.753906 232.375 C 55.878906 231.785156 56.066406 231.207031 56.230469 230.625 C 56.429688 230.050781 56.613281 229.46875 56.859375 228.90625 C 57.078125 228.335938 57.351562 227.785156 57.621094 227.234375 L 58.0625 226.421875 C 58.207031 226.148438 58.382812 225.890625 58.542969 225.625 C 59.207031 224.582031 59.96875 223.585938 60.832031 222.675781 C 62.566406 220.859375 64.714844 219.390625 67.113281 218.476562 Z M 62.351562 226.726562 C 60.820312 228.726562 59.789062 231.136719 59.246094 233.675781 C 58.6875 236.148438 58.734375 238.761719 59.160156 241.332031 C 59.382812 242.617188 59.6875 243.894531 60.085938 245.148438 C 60.28125 245.773438 60.507812 246.394531 60.738281 247.011719 C 60.980469 247.621094 61.226562 248.234375 61.503906 248.832031 C 62.59375 251.238281 63.960938 253.515625 65.558594 255.617188 C 67.40625 258.042969 69.71875 260.109375 72.3125 261.617188 C 74.90625 263.132812 77.773438 264.070312 80.734375 264.386719 C 81.433594 264.460938 82.371094 264.503906 83.472656 264.429688 C 84.570312 264.359375 85.828125 264.171875 87.15625 263.851562 C 87.824219 263.703125 88.492188 263.492188 89.183594 263.277344 C 89.871094 263.042969 90.574219 262.792969 91.273438 262.511719 C 92.671875 261.953125 94.082031 261.3125 95.410156 260.664062 C 95.425781 260.65625 95.445312 260.644531 95.464844 260.636719 C 94.679688 259.6875 93.917969 258.71875 93.175781 257.742188 C 92.441406 256.773438 91.710938 255.800781 90.984375 254.824219 L 89.898438 253.359375 L 89.765625 253.175781 C 89.734375 253.136719 89.734375 253.136719 89.722656 253.121094 L 89.691406 253.082031 L 89.574219 252.9375 C 89.496094 252.839844 89.425781 252.738281 89.347656 252.660156 C 89.226562 252.730469 89.113281 252.800781 88.996094 252.863281 L 88.824219 252.957031 L 88.351562 253.171875 C 87.71875 253.453125 87.074219 253.714844 86.40625 253.929688 C 85.078125 254.367188 83.667969 254.660156 82.214844 254.714844 C 80.761719 254.757812 79.25 254.570312 77.84375 254.019531 C 77.136719 253.75 76.464844 253.402344 75.832031 252.992188 C 75.199219 252.585938 74.621094 252.101562 74.089844 251.585938 C 73.210938 250.71875 72.460938 249.75 71.835938 248.730469 C 71.6875 248.472656 71.527344 248.214844 71.386719 247.953125 L 71.175781 247.5625 C 71.109375 247.429688 71.039062 247.300781 70.972656 247.15625 C 70.703125 246.601562 70.46875 246.023438 70.285156 245.433594 C 69.910156 244.25 69.703125 243 69.726562 241.71875 C 69.746094 240.445312 70.003906 239.125 70.613281 237.910156 C 70.925781 237.277344 71.328125 236.675781 71.8125 236.144531 C 72.300781 235.613281 72.867188 235.152344 73.480469 234.789062 C 74.097656 234.421875 74.753906 234.152344 75.414062 233.960938 C 76.066406 233.773438 76.785156 233.644531 77.519531 233.640625 C 78.253906 233.632812 78.988281 233.75 79.664062 233.945312 C 80.339844 234.140625 80.957031 234.40625 81.523438 234.683594 C 82.660156 235.246094 83.628906 235.84375 84.59375 236.355469 C 85.554688 236.875 86.496094 237.320312 87.472656 237.675781 C 88.441406 238.035156 89.4375 238.300781 90.457031 238.488281 C 90.710938 238.542969 90.96875 238.578125 91.226562 238.617188 C 91.484375 238.660156 91.746094 238.683594 92.003906 238.714844 L 92.199219 238.738281 L 92.726562 238.773438 C 92.964844 238.785156 93.207031 238.777344 93.445312 238.78125 C 94.414062 238.746094 95.414062 238.585938 96.421875 238.339844 C 97.589844 238.054688 98.75 237.621094 99.882812 237.097656 C 101.019531 236.578125 102.132812 235.976562 103.226562 235.324219 C 105.414062 234.015625 107.511719 232.527344 109.648438 231.03125 C 109.78125 230.933594 109.929688 230.828125 110.089844 230.71875 C 110.167969 230.660156 110.25 230.601562 110.335938 230.539062 C 110.375 230.507812 110.417969 230.476562 110.464844 230.445312 C 110.476562 230.433594 110.476562 230.433594 110.480469 230.433594 L 110.488281 230.429688 L 110.503906 230.417969 C 110.589844 230.363281 110.683594 230.296875 110.789062 230.230469 C 110.757812 230.164062 110.710938 230.085938 110.667969 230.007812 L 110.632812 229.945312 L 110.609375 229.898438 L 110.574219 229.84375 C 110.46875 229.667969 110.359375 229.492188 110.25 229.3125 C 109.8125 228.589844 109.351562 227.828125 108.886719 227.035156 C 107.972656 225.484375 107.042969 223.832031 106.234375 222.230469 C 106.171875 222.28125 106.109375 222.328125 106.046875 222.371094 C 104.722656 223.320312 103.339844 224.1875 101.910156 224.988281 C 100.855469 225.574219 99.785156 226.136719 98.683594 226.652344 L 97.851562 227.035156 L 97.007812 227.398438 C 96.722656 227.515625 96.441406 227.632812 96.152344 227.742188 L 95.71875 227.90625 C 95.574219 227.960938 95.4375 228.015625 95.265625 228.066406 C 94.609375 228.285156 93.925781 228.429688 93.234375 228.492188 C 92.546875 228.554688 91.859375 228.539062 91.1875 228.464844 C 89.839844 228.3125 88.5625 227.933594 87.371094 227.453125 C 84.988281 226.480469 82.898438 225.128906 80.886719 223.878906 C 79.863281 223.230469 78.964844 222.710938 77.96875 222.296875 C 76.980469 221.882812 75.953125 221.582031 74.90625 221.410156 C 72.527344 221.023438 70.066406 221.34375 67.902344 222.316406 C 65.726562 223.277344 63.839844 224.824219 62.351562 226.726562 Z M 62.351562 226.726562 " fill-opacity="1" fill-rule="nonzero"/></g></g></g></g></svg>