<svg xmlns="http://www.w3.org/2000/svg" viewBox="0 0 1000 584.2" style="enable-background:new 0 0 1000 584.2" xml:space="preserve"><linearGradient id="a" gradientUnits="userSpaceOnUse" x1="-178.068" y1="166.069" x2="-171.057" y2="166.069" gradientTransform="scale(128.6857) rotate(-45 -282.949 -131.579)"><stop offset="0" style="stop-color:#0c6cb3"/><stop offset=".291" style="stop-color:#1e84c4"/><stop offset=".887" style="stop-color:#4cc0ef"/><stop offset="1" style="stop-color:#4cc0ef"/></linearGradient><path d="M664.7 252.8c-6.7 4.5-16.9 7.9-29.2 7.9-19.1 0-37.1-2.2-55-7.9-4.5-1.1-7.9-2.2-10.1-2.2-3.4 0-4.5 2.2-4.5 6.7v11.2c0 3.4 1.1 5.6 2.2 7.9 1.1 1.1 3.4 3.4 6.7 4.5 18 7.9 38.2 11.2 60.7 11.2 23.6 0 41.6-5.6 56.2-16.9 14.6-11.2 21.3-25.8 21.3-44.9 0-13.5-3.4-23.6-10.1-32.6-6.7-7.9-18-15.7-33.7-21.3L637.7 164c-12.4-4.5-21.3-9-24.7-13.5-4.5-4.5-6.7-9-6.7-16.9 0-16.9 12.4-25.8 38.2-25.8 14.6 0 29.2 2.2 42.7 6.7 4.5 1.1 7.9 2.2 9 2.2 3.4 0 5.6-2.2 5.6-6.7V98.9c0-3.4-1.1-5.6-2.2-7.9-1.1-2.2-3.4-3.4-6.7-4.5-16.9-5.6-33.7-9-50.6-9-21.3 0-39.3 5.6-52.8 15.7s-20.2 24.7-20.2 41.6c0 25.8 14.6 44.9 43.8 56.2l33.7 12.4c11.2 4.5 18 7.9 22.5 12.4s5.6 9 5.6 15.7c-.1 8.9-3.5 16.8-10.2 21.3z" style="fill:url(#a)"/><linearGradient id="b" gradientUnits="userSpaceOnUse" x1="-178.068" y1="164.979" x2="-171.057" y2="164.979" gradientTransform="scale(128.6857) rotate(-45 -282.949 -131.579)"><stop offset="0" style="stop-color:#0c6cb3"/><stop offset=".291" style="stop-color:#1e84c4"/><stop offset=".887" style="stop-color:#4cc0ef"/><stop offset="1" style="stop-color:#4cc0ef"/></linearGradient><path d="M488.3 91v149.4c-19.1 12.4-38.2 19.1-57.3 19.1-12.4 0-21.3-3.4-27-10.1-5.6-6.7-7.9-16.9-7.9-31.5V91c0-5.6-2.2-7.9-7.9-7.9h-23.6c-5.6 0-7.9 2.2-7.9 7.9v139.3c0 19.1 4.5 34.8 14.6 44.9 10.1 10.1 24.7 15.7 43.8 15.7 25.8 0 51.7-9 76.4-27l2.2 13.5c0 3.4 1.1 4.5 3.4 5.6 1.1 1.1 3.4 1.1 6.7 1.1h16.9c5.6 0 7.9-2.2 7.9-7.9V91c0-5.6-2.2-7.9-7.9-7.9h-23.6c-6.6 0-8.8 3.4-8.8 7.9z" style="fill:url(#b)"/><linearGradient id="c" gradientUnits="userSpaceOnUse" x1="-178.068" y1="163.417" x2="-171.057" y2="163.417" gradientTransform="scale(128.6857) rotate(-45 -282.949 -131.579)"><stop offset="0" style="stop-color:#0c6cb3"/><stop offset=".291" style="stop-color:#1e84c4"/><stop offset=".887" style="stop-color:#4cc0ef"/><stop offset="1" style="stop-color:#4cc0ef"/></linearGradient><path d="M274.8 285.3h23.6c5.6 0 7.9-2.2 7.9-7.9V137.1c0-19.1-4.5-33.7-14.6-43.8-10.1-10.1-23.6-15.7-42.7-15.7-25.8 0-52.8 9-78.6 28.1-9-19.1-25.8-28.1-50.6-28.1s-49.4 9-74.1 25.8L43.4 91c0-3.4-1.1-4.5-3.4-5.6-1.1-1.1-3.4-1.1-5.6-1.1h-18c-5.6 0-7.9 2.2-7.9 7.9v186.5c0 5.6 2.2 7.9 7.9 7.9H40c5.6 0 7.9-2.2 7.9-7.9V126.9c19.1-11.2 38.2-18 58.4-18 11.2 0 19.1 3.4 23.6 10.1s7.9 15.7 7.9 29.2v129.2c0 5.6 2.2 7.9 7.9 7.9h23.6c5.6 0 7.9-2.2 7.9-7.9V127c20.2-12.4 39.3-18 58.4-18 11.2 0 19.1 3.4 23.6 10.1 4.5 6.7 7.9 15.7 7.9 29.2v129.2c-.1 5.6 2.1 7.8 7.7 7.8z" style="fill:url(#c)"/><linearGradient id="d" gradientUnits="userSpaceOnUse" x1="-178.064" y1="166.338" x2="-171.053" y2="166.338" gradientTransform="scale(128.6857) rotate(-45 -282.949 -131.579)"><stop offset="0" style="stop-color:#0c6cb3"/><stop offset=".291" style="stop-color:#1e84c4"/><stop offset=".887" style="stop-color:#4cc0ef"/><stop offset="1" style="stop-color:#4cc0ef"/></linearGradient><path d="M887.1 434.8c-122.4 51.7-256.1 77.5-377.5 77.5-179.7 0-353.9-49.4-494.3-131.4-2.2-1.1-4.5-2.2-6.7-2.2-7.9 0-12.4 9-4.5 16.9 130.3 118 303.3 188.7 494.3 188.7 137.1 0 295.5-42.7 404.4-123.6 19.1-13.6 3.4-33.8-15.7-25.9z" style="fill:url(#d)"/><linearGradient id="e" gradientUnits="userSpaceOnUse" x1="-178.068" y1="167.619" x2="-171.057" y2="167.619" gradientTransform="scale(128.6857) rotate(-45 -282.949 -131.579)"><stop offset="0" style="stop-color:#0c6cb3"/><stop offset=".291" style="stop-color:#1e84c4"/><stop offset=".887" style="stop-color:#4cc0ef"/><stop offset="1" style="stop-color:#4cc0ef"/></linearGradient><path d="M883.7 128.1c10.1-11.2 25.8-16.9 48.3-16.9 11.2 0 22.5 1.1 32.6 4.5 3.4 1.1 4.5 1.1 6.7 1.1 3.4 0 5.6-2.2 5.6-7.9V97.7c0-3.4-1.1-6.7-2.2-7.9s-3.4-3.4-5.6-4.5c-14.6-3.4-29.2-6.7-42.7-6.7-31.5 0-55 9-73 28.1-16.9 18-25.8 44.9-25.8 78.6s7.9 59.5 24.7 77.5c16.9 18 40.4 27 71.9 27 16.9 0 32.6-2.2 44.9-7.9 3.4-1.1 5.6-2.2 6.7-4.5 1.1-1.1 1.1-4.5 1.1-7.9v-11.2c0-5.6-2.2-7.9-5.6-7.9-1.1 0-3.4 0-5.6 1.1-12.4 3.4-24.7 5.6-35.9 5.6-21.3 0-37.1-5.6-47.2-16.9C872.5 229 868 211 868 187.4V182c1.1-24.7 5.6-42.7 15.7-53.9z" style="fill:url(#e)"/><linearGradient id="f" gradientUnits="userSpaceOnUse" x1="-178.068" y1="168.908" x2="-171.057" y2="168.908" gradientTransform="scale(128.6857) rotate(-45 -282.949 -131.579)"><stop offset="0" style="stop-color:#0c6cb3"/><stop offset=".291" style="stop-color:#1e84c4"/><stop offset=".887" style="stop-color:#4cc0ef"/><stop offset="1" style="stop-color:#4cc0ef"/></linearGradient><path d="M934.3 540.4c58.4-49.4 74.1-151.7 61.8-167.4-5.6-6.7-32.6-13.5-66.3-13.5-35.9 0-78.6 7.9-111.2 30.3-10.1 6.7-7.9 15.7 2.2 14.6 34.8-4.5 113.5-13.5 128.1 4.5 13.5 18-15.7 92.1-29.2 124.7-3.4 10.1 4.5 13.5 14.6 6.8z" style="fill:url(#f)"/><linearGradient id="g" gradientUnits="userSpaceOnUse" x1="-178.068" y1="166.76" x2="-171.057" y2="166.76" gradientTransform="scale(128.6857) rotate(-45 -282.949 -131.579)"><stop offset="0" style="stop-color:#0c6cb3"/><stop offset=".291" style="stop-color:#1e84c4"/><stop offset=".887" style="stop-color:#4cc0ef"/><stop offset="1" style="stop-color:#4cc0ef"/></linearGradient><path d="M778.1 83.1h-23.6c-5.6 0-7.9 2.2-7.9 7.9v186.5c0 5.6 2.2 7.9 7.9 7.9h23.6c5.6 0 7.9-2.2 7.9-7.9V91c0-4.5-2.3-7.9-7.9-7.9z" style="fill:url(#g)"/><linearGradient id="h" gradientUnits="userSpaceOnUse" x1="-178.068" y1="165.874" x2="-171.057" y2="165.874" gradientTransform="scale(128.6857) rotate(-45 -282.949 -131.579)"><stop offset="0" style="stop-color:#0c6cb3"/><stop offset=".291" style="stop-color:#1e84c4"/><stop offset=".887" style="stop-color:#4cc0ef"/><stop offset="1" style="stop-color:#4cc0ef"/></linearGradient><path d="M784.9 6.7C780.4 2.2 773.6 0 765.8 0c-7.9 0-13.5 2.2-18 6.7s-6.7 10.1-6.7 16.9 2.2 13.5 6.7 16.9c4.5 4.5 10.1 6.7 18 6.7s13.5-2.2 18-6.7 6.7-10.1 6.7-16.9c0-6.7-1.1-13.5-5.6-16.9z" style="fill:url(#h)"/></svg>