<?xml version="1.0" encoding="utf-8"?>
<!-- Generator: Adobe Illustrator 16.0.0, SVG Export Plug-In . SVG Version: 6.00 Build 0)  -->
<!DOCTYPE svg PUBLIC "-//W3C//DTD SVG 1.1//EN" "http://www.w3.org/Graphics/SVG/1.1/DTD/svg11.dtd">
<svg version="1.1" id="Layer_1" xmlns="http://www.w3.org/2000/svg" xmlns:xlink="http://www.w3.org/1999/xlink" x="0px" y="0px"
	  viewBox="0 0 325 325" enable-background="new 0 0 325 325" xml:space="preserve">
<g id="overcastCanvas-group">
	<path id="overcastCanvas-bezier" fill="#FC7E0F" d="M162.499,318.114c-86.237,0-155.613-69.377-155.613-155.615
		c0-86.237,69.376-155.613,155.613-155.613c86.238,0,155.615,69.376,155.615,155.613
		C318.114,248.737,248.737,318.114,162.499,318.114z M162.499,256.518l11.672-11.671l-11.672-44.739l-11.671,44.739L162.499,256.518
		z M147.588,255.868l-5.835,22.047l13.616-13.616L147.588,255.868z M177.412,255.868l-7.781,7.781l13.616,13.616L177.412,255.868z
		 M188.437,296.067l-25.938-25.933l-25.937,25.933c8.43,1.301,16.861,2.596,25.937,2.596
		C171.576,298.663,180.008,298.013,188.437,296.067z M162.499,26.337c-75.212,0-136.161,60.95-136.161,136.162
		c0,59.651,38.253,110.227,91.423,128.382l29.178-108.28c-6.485-4.539-10.376-12.32-10.376-20.751
		c0-14.262,11.672-25.933,25.937-25.933c14.267,0,25.938,11.671,25.938,25.933c0,8.431-3.89,15.563-10.375,20.751l29.177,108.28
		c53.171-18.155,91.425-68.73,91.425-128.382C298.663,87.287,237.713,26.337,162.499,26.337z M251.329,229.931
		c-3.241,3.892-9.077,5.191-13.616,1.946c-4.537-3.242-5.187-9.077-1.946-12.968c0,0,17.506-23.342,17.506-56.41
		c0-33.067-17.506-56.409-17.506-56.409c-3.24-3.891-2.591-9.726,1.946-12.967c4.539-3.244,10.375-1.945,13.616,1.946
		c1.299,1.295,21.396,27.877,21.396,67.43C272.726,202.054,252.628,228.635,251.329,229.931z M203.999,204.645
		c-3.892-3.891-3.245-11.022,0.646-14.912c0,0,9.727-10.376,9.727-27.233c0-16.856-9.727-26.582-9.727-27.232
		c-3.891-3.889-3.891-10.375-0.646-14.912c3.89-4.538,9.726-4.538,13.614-0.647c0.646,0.647,16.209,16.855,16.209,42.792
		c0,25.938-15.563,42.146-16.209,42.794C213.725,209.185,207.889,208.534,203.999,204.645z M121.002,204.645
		c-3.891,3.89-9.727,4.54-13.616,0.648c-0.646-1.294-16.208-16.856-16.208-42.794c0-25.937,15.563-41.497,16.208-42.792
		c3.89-3.891,10.375-3.891,13.616,0.647c3.89,3.892,3.244,11.023-0.647,14.912c0,0.65-9.725,10.376-9.725,27.232
		c0,16.857,9.725,27.233,9.725,27.233C124.246,193.622,124.892,200.107,121.002,204.645z M87.287,231.877
		c-4.539,3.245-10.375,1.945-13.615-1.946c-1.3-1.296-21.397-27.877-21.397-67.432c0-39.553,20.098-66.135,21.397-67.43
		c3.24-3.892,9.076-5.19,13.615-1.946c4.537,3.241,5.187,9.076,1.945,12.967c0,0-17.507,23.342-17.507,56.409
		c0,33.068,17.507,56.41,17.507,56.41C92.474,222.8,91.178,228.635,87.287,231.877z"/>
</g>
</svg>
